<?xml version="1.0" encoding="utf-8"?>
<!-- Generator: Adobe Illustrator 23.0.0, SVG Export Plug-In . SVG Version: 6.00 Build 0)  -->
<svg version="1.1" id="Layer_1" xmlns="http://www.w3.org/2000/svg" xmlns:xlink="http://www.w3.org/1999/xlink" x="0px" y="0px"
	 viewBox="0 0 290.3 290.3" style="enable-background:new 0 0 290.3 290.3;" xml:space="preserve">
<style type="text/css">
	.st0{opacity:0.2;fill:#231F20;enable-background:new    ;}
	.st1{fill:#53B95B;}
	.st2{fill:#56A5DB;}
	.st3{fill:#DA1F26;}
	.st4{fill:#F9A748;}
	.st5{fill:#FFCA35;}
</style>
<g>
	<g>
		<path class="st0" d="M93.9,225.6c-31.4-0.1-56.8,5.2-56.8,12c0,6.7,25.5,12.4,56.7,12.5c31.4,0.1,56.8-5.2,56.8-12
			C150.8,231.4,125.3,225.7,93.9,225.6L93.9,225.6L93.9,225.6z"/>
		<g>
			<g>
				<g>
					<g id="XMLID_29_">
						<path d="M290.3,106.4v6.2c0,40.7-33.3,74-74,74s-74.2-33.3-74.2-74s33.3-74,74-74h6.2v68h68V106.4z M277.9,118.8h-55.6v-6.2
							h-12.4V51c-30.8,3.7-55.5,29.6-55.5,61.6c0,31.9,24.5,58.3,55.6,61.4v6.5h12.4v-6.3C251.5,171.3,274.5,147.7,277.9,118.8z"/>
						<path class="st1" d="M222.3,118.8h55.6c-3.4,28.9-26.4,52.3-55.6,55.3L222.3,118.8L222.3,118.8z"/>
						<path d="M222.3,174.1v6.5h-12.4v-6.5c2.1,0.1,4.1,0.3,6.2,0.3S220.3,174.3,222.3,174.1z"/>
						<path d="M222.3,118.8v55.3c-2.1,0.3-4.1,0.3-6.2,0.3s-4.1-0.1-6.2-0.3v-55.3H222.3z"/>
						<rect x="209.9" y="112.6" width="12.4" height="6.2"/>
						<path class="st2" d="M209.9,118.8v55.3c-31.1-3.2-55.5-29.6-55.5-61.5c0-32.1,24.6-58.1,55.6-61.8v61.8v6.2H209.9z"/>
					</g>
				</g>
			</g>
			<path class="st0" d="M216.4,182.9c-22.7-0.1-41.1,3.7-41.1,8.7c0,4.8,18.4,8.9,41.1,9.1s41.1-3.7,41.1-8.7
				C257.5,187.1,239.1,183.1,216.4,182.9L216.4,182.9L216.4,182.9z"/>
			<g>
				<g>
					<g id="XMLID_28_">
						<path d="M222.3,118.8v68h-6.2c-40.7,0-74-33.3-74-74s33.3-74,74-74s74,33.3,74,74v6.2h-67.8V118.8z M222.3,51.3v-6.5h-12.4
							v6.5c-31.1,3.2-55.5,29.6-55.5,61.4c0,32.1,24.6,58.1,55.6,61.8v-61.8h12.4v-6.2H278C274.5,77.7,251.5,54.1,222.3,51.3z"/>
						<path class="st3" d="M222.3,106.4h55.6c-3.4-28.9-26.4-52.3-55.6-55.3L222.3,106.4L222.3,106.4z"/>
						<path d="M222.3,51.3v-6.5h-12.4v6.5c2.1-0.1,4.1-0.3,6.2-0.3S220.3,51,222.3,51.3z"/>
						<path d="M222.3,106.4V51.3c-2.1-0.3-4.1-0.3-6.2-0.3s-4.1,0.1-6.2,0.3v55.3h12.4V106.4z"/>
						<rect x="209.9" y="106.4" width="12.4" height="6.2"/>
					</g>
				</g>
			</g>
			<path class="st4" d="M167.8,201.7L167.8,201.7L167.8,201.7c0.1,0,0.3,0.1,0.4,0.1l0,0C168,201.7,167.8,201.7,167.8,201.7
				L167.8,201.7L167.8,201.7L167.8,201.7z"/>
			<path class="st4" d="M168,203.5L168,203.5L168,203.5L168,203.5L168,203.5L168,203.5z"/>
			<path class="st4" d="M168,81L168,81L168,81L168,81L168,81L168,81z"/>
			<path class="st4" d="M167.6,201.4c0.1,0.1,0.4,0.1,0.6,0.3l0,0c0.1,0,0.3,0.1,0.4,0.1l0,0c-0.1-0.1-0.3-0.1-0.6-0.3
				C167.7,201.5,167.7,201.4,167.6,201.4L167.6,201.4L167.6,201.4L167.6,201.4z"/>
			<path class="st4" d="M99.6,182.5L99.6,182.5L99.6,182.5c0.1,0,0.3,0.1,0.4,0.1l0,0C99.9,182.5,99.7,182.5,99.6,182.5
				C99.6,182.4,99.6,182.4,99.6,182.5L99.6,182.5L99.6,182.5z"/>
			<path class="st4" d="M99.9,184.3L99.9,184.3L99.9,184.3L99.9,184.3L99.9,184.3L99.9,184.3z"/>
			<path class="st4" d="M99.7,61.9L99.7,61.9C99.7,61.9,99.9,61.9,99.7,61.9C99.9,61.9,99.9,61.9,99.7,61.9L99.7,61.9L99.7,61.9z"/>
			<path class="st4" d="M99.3,182.3c0.1,0.1,0.4,0.1,0.6,0.3l0,0c0.1,0,0.3,0.1,0.4,0.1l0,0c-0.1-0.1-0.3-0.1-0.6-0.3
				C99.6,182.3,99.4,182.3,99.3,182.3L99.3,182.3L99.3,182.3L99.3,182.3z"/>
			<g>
				<g>
					<circle class="st5" cx="93.1" cy="143.6" r="85.7"/>
					<path d="M93.1,236.2c-51.1,0-92.6-41.6-92.6-92.6S41.9,51,93.1,51c51.1,0,92.6,41.6,92.6,92.6S144.2,236.2,93.1,236.2z
						 M93.1,64.7c-43.5,0-78.8,35.4-78.8,78.8s35.4,78.8,78.8,78.8s78.8-35.4,78.8-78.8C171.8,100.1,136.5,64.7,93.1,64.7z"/>
				</g>
			</g>
			<g>
				<g>
					<circle cx="55" cy="135.1" r="15"/>
				</g>
				<g>
					<circle cx="133.7" cy="135.1" r="15"/>
				</g>
			</g>
			<path d="M218.2,52.6c19.5,19.5,38.9,39.1,58.5,58.6c3.7,3.7,9.4-2.1,5.8-5.8C263,85.9,243.6,66.3,224,46.8
				C220.3,43.3,214.5,48.9,218.2,52.6L218.2,52.6z"/>
			<path d="M215.6,79.6c11,11,22,22.2,33,33.2c3.7,3.7,9.4-2.1,5.8-5.8c-11-11-22-22.2-33-33.2C217.6,70.1,211.9,75.9,215.6,79.6
				L215.6,79.6z"/>
			<path d="M62.3,176.2c20.2,15.5,46.8,13.5,65.5-3.4c6.5-5.9-3.2-15.4-9.5-9.5c-14.4,13.2-33.9,13.1-49.1,1.4
				C62.3,159.1,55.5,171,62.3,176.2L62.3,176.2z"/>
		</g>
	</g>
</g>
</svg>
