<svg xmlns="http://www.w3.org/2000/svg" viewBox="0 0 775.55 283.91"><defs><style>.cls-1{fill:#515252;}</style></defs><title>Asset 1</title><g id="Layer_2" data-name="Layer 2"><g id="Layer_2-2" data-name="Layer 2"><path class="cls-1" d="M27.33,93.61A217.25,217.25,0,0,1,51.92,27.69L25.83,20.63q-8.75,105.92-25,211c-1.16,7.46,1.9,15.06,9.78,17.22s14.6-2.66,17.22-9.78L108.88,18.9c2.61-7.1-2.92-15.34-9.78-17.22C91.26-.48,84.54,4.35,81.88,11.46A649.22,649.22,0,0,0,41.1,231c-.18,15.9,23.15,18.86,27.5,3.72L125.47,36.83l-27-7.44L72.7,210.59c-1,6.91,1.1,13.7,8.11,16.52,5.79,2.33,14.71.76,17.48-5.73,22.72-53.26,39.49-108.58,56-164l-27.5-3.72-25.5,198.16c-.88,6.8,6,13,12.14,13.75a14.08,14.08,0,0,0,15.36-10L193.31,46.4l-27.5-3.72q-7.34,100-16.24,199.91c-.61,6.85,5.79,13,12.14,13.75,6.66.79,13.7-3.14,15.36-10l48.24-200-27.5-3.72a1470,1470,0,0,1-21.7,194.58c-1.34,7.43,2,15.09,9.78,17.22s14.64-2.64,17.22-9.78c24.53-67.73,49.08-135.86,62-206.94l-27.5-3.72a1345.32,1345.32,0,0,1-41.75,208.9,14.22,14.22,0,0,0,9.78,17.22c8.07,2.22,14.3-2.77,17.22-9.78a1280.28,1280.28,0,0,0,69-218.68l-27.5-3.72a1915.09,1915.09,0,0,1-38.6,213.77c-1.76,7.35,2.31,15.17,9.78,17.22,7.85,2.16,14.56-2.67,17.22-9.78a1610.75,1610.75,0,0,0,61-202.29l-27.5-3.72a1220.27,1220.27,0,0,1-31.08,192.65c-1.79,7.34,2.34,15.18,9.78,17.22,7.92,2.18,14.47-2.7,17.22-9.78A1801.13,1801.13,0,0,0,344,53.35l-27-7.44a1727.11,1727.11,0,0,0-31.14,194.14c-.7,6.83,5.86,13,12.14,13.75,7.16.85,13-3.28,15.36-10,22.68-65.44,33.89-134,44.92-202.12l-27.5-3.72c1.05,65.6-12,130-25.15,193.93-1.52,7.4,2.15,15.13,9.78,17.22,7.83,2.15,14.58-2.66,17.22-9.78A1050.38,1050.38,0,0,0,385.06,39.8c1.19-7.46-1.92-15.06-9.78-17.22-6.75-1.86-15.91,2.29-17.22,9.78Q340.46,133,325.42,234.1c-1.11,7.47,1.87,15,9.78,17.22a14.23,14.23,0,0,0,17.22-9.78c21.32-68.06,36.86-137.72,52.33-207.29l-27-7.44a2138.14,2138.14,0,0,0-27.52,214c-1.05,13.61,20.16,19.41,26.09,7.07A561.74,561.74,0,0,0,430.86,37.35h-28L391.42,236.43c-.92,15.93,23.46,18.78,27.5,3.72l53.5-199.66c4-14.95-18.18-25.25-25.59-10.79C429.82,62.88,419,98.63,411,134.91c-3.9,17.63-7.22,35.38-10.5,53.13-3.67,19.87-6.38,39.25,2.53,58.17,4.44,9.43,19.56,8.84,24.18,0,31-59.23,31.19-127.08,49.3-190.23l-27-7.44L411,244.57c-1.45,7.41,2.1,15.11,9.78,17.22,7.84,2.15,14.57-2.67,17.22-9.78A1404.58,1404.58,0,0,0,500.5,31.1l-27-7.44q-19.93,102.59-35.81,205.9c-1.15,7.46,1.89,15.05,9.78,17.22S461.83,244,464.69,237A787.44,787.44,0,0,0,514.8,50.91l-27.5-3.72-18,184.9c-.66,6.84,5.83,13,12.14,13.75,6.54.78,13.87-3.11,15.36-10l46.43-215.2-27-7.44L482.4,237.06c-1,6.9,1.14,13.71,8.11,16.52,6.06,2.44,14.35.62,17.48-5.73A742.09,742.09,0,0,0,574,46.4l-27.5-3.72q-12.22,102.27-31.9,203.45c-1.44,7.42,2.09,15.11,9.78,17.22,6.9,1.9,15.72-2.33,17.22-9.78q18.29-90.84,41.81-180.51l-27.5-3.72q-9.27,71.45-11.48,143.56c-.47,15.54,24.24,19.35,27.5,3.72L607.11,48.14l-27.5-3.72A902.38,902.38,0,0,1,557.95,230c-1.65,7.37,2.24,15.15,9.78,17.22,7.7,2.11,14.74-2.61,17.22-9.78A1248.42,1248.42,0,0,0,636.88,32.37c1.23-7.45-1.95-15.07-9.78-17.22-6.7-1.84-16,2.28-17.22,9.78L575.5,231.61c-1.24,7.45,2,15.07,9.78,17.22a14.19,14.19,0,0,0,17.22-9.78L656.79,36l-27-7.44L596.22,266.2c-1.06,7.48,1.83,15,9.78,17.22a14.21,14.21,0,0,0,17.22-9.78c22.17-75.77,39.08-153,52.14-230.82l-27-7.44q-16.13,106.22-30.19,212.74c-.9,6.8,6,13,12.14,13.75a14.09,14.09,0,0,0,15.36-10C669,178.39,683.44,102.52,694.35,26.32l-27.5-3.72L645.05,242.2c-.68,6.84,5.84,13,12.14,13.75,6.67.79,13.69-3.14,15.36-10A2127.26,2127.26,0,0,0,714,23.63H686l-.83,119.65c-.13,19.09,0,38.22-.51,57.31-.47,16.43-1.83,32.92-8.88,47.58L701.38,259A809.87,809.87,0,0,0,742,68.79q2.5-27.34,3.09-54.79c.17-7.56-6.56-14-14-14-8.29,0-13.13,6.45-14,14L692.68,225.68c-.79,6.82,5.93,13,12.14,13.75,6.42.76,14-3.09,15.36-10L760.45,19.15,733,15.42a758.14,758.14,0,0,1-24.71,218.24c-4.61,17.44,22.39,24.88,27,7.44A785.88,785.88,0,0,0,761,15.42,14,14,0,0,0,748.81,1.67c-6.42-.76-14,3.09-15.36,10L693.18,222l27.5,3.72L745.09,14h-28a778.13,778.13,0,0,1-26.83,186q-7.05,26-15.88,51.55c-5.12,14.84,18.69,25.14,25.59,10.79,8.42-17.54,11.55-36.3,12.47-55.61.95-19.78.58-39.66.71-59.46L714,23.63a14.21,14.21,0,0,0-14-14c-8.39,0-13,6.47-14,14a2057.83,2057.83,0,0,1-40.46,214.85l27.5,3.72L694.85,22.6c.68-6.84-5.84-13-12.14-13.75s-14.36,3.06-15.36,10C656.44,95.07,642,170.95,618.67,244.4l27.5,3.72q13.6-102.79,29.19-205.29c1.13-7.47-1.88-15.05-9.78-17.22-6.71-1.84-16,2.28-17.22,9.78-13.06,77.84-30,155-52.14,230.82l27,7.44L656.79,36c1.06-7.48-1.83-15-9.78-17.22a14.19,14.19,0,0,0-17.22,9.78L575.5,231.61l27,7.44L636.88,32.37l-27-7.44A1248.42,1248.42,0,0,1,557.95,230l27,7.44A940,940,0,0,0,607.61,44.42C607.81,29,583.4,25,580.11,40.7L545,209.17l27.5,3.72q2.2-72,11.48-143.56c.88-6.8-6-13-12.14-13.75-6.76-.8-13.56,3.16-15.36,10q-23.51,89.63-41.81,180.51l27,7.44q20.3-104.81,32.9-210.89c.81-6.81-5.95-13-12.14-13.75S548.23,32,547,39a717,717,0,0,1-63.22,194.76L509.4,244.5,543.25,20.62c1.13-7.47-1.88-15.05-9.78-17.22-7-1.92-15.62,2.35-17.22,9.78l-46.43,215.2,27.5,3.72,18-184.9c.66-6.84-5.83-13-12.14-13.75s-14.38,3.05-15.36,10a787.44,787.44,0,0,1-50.11,186.09l27,7.44Q480.57,133.71,500.5,31.1c1.44-7.41-2.09-15.11-9.78-17.22C483.85,12,475,16.2,473.5,23.66A1404.58,1404.58,0,0,1,411,244.57L438,252,476.52,56c1.45-7.41-2.1-15.11-9.78-17.22a14.21,14.21,0,0,0-17.22,9.78C432.19,109,432.33,176.05,403,232.08h24.18c-5.79-12.3-1-29.6,1.61-43.68,3.09-16.57,6.26-33.13,10-49.57,7.39-32.73,16.9-65.15,32.2-95L445.42,33.05l-53.5,199.66,27.5,3.72L430.86,37.35c.43-7.56-6.75-14-14-14-7.95,0-13.56,6.42-14,14a526.31,526.31,0,0,1-50.72,196.42l26.09,7.07A2063,2063,0,0,1,404.75,34.26c1.34-7.43-2-15.09-9.78-17.22-7-1.93-15.57,2.36-17.22,9.78-15.47,69.57-31,139.23-52.33,207.29l27,7.44q15-101.08,32.64-201.75l-27-7.44a1050.38,1050.38,0,0,1-52.39,199.51l27,7.44C346.28,173,359.9,105.93,358.81,37.93a14,14,0,0,0-12.14-13.75c-6.27-.75-14.23,3.07-15.36,10-11,68.16-22.24,136.68-44.92,202.12l27.5,3.72A1660.93,1660.93,0,0,1,344,53.35c1.62-7.38-2.22-15.15-9.78-17.22A14.19,14.19,0,0,0,317,45.91a1801.13,1801.13,0,0,1-61.86,189.82l27,7.44A1268,1268,0,0,0,314.26,43.08c1.25-15.75-24-19-27.5-3.72a1610.75,1610.75,0,0,1-61,202.29l27,7.44A1980.57,1980.57,0,0,0,292.4,27.87c.83-6.81-6-13-12.14-13.75-6.56-.78-13.84,3.12-15.36,10a1280.28,1280.28,0,0,1-69,218.68l27,7.44A1391.7,1391.7,0,0,0,265.62,33.93c.8-6.82-5.94-13-12.14-13.75-6.37-.76-14.1,3.08-15.36,10-12.93,71.08-37.48,139.21-62,206.94l27,7.44a1527,1527,0,0,0,22.7-202c.71-15.74-23.8-19.06-27.5-3.72l-48.24,200,27.5,3.72q8.9-99.89,16.24-199.91c.5-6.86-5.71-13-12.14-13.75a14.08,14.08,0,0,0-15.36,10L101.73,248.08l27.5,3.72,25.5-198.16c.88-6.8-6-13-12.14-13.75a14.05,14.05,0,0,0-15.36,10c-15.74,53-31.39,106.38-53.13,157.33L99.7,218,125.47,36.83c1.06-7.48-1.83-15-9.78-17.22a14.21,14.21,0,0,0-17.22,9.78L41.6,227.27,69.1,231A625.93,625.93,0,0,1,108.88,18.9l-27-7.44L.8,231.64l27,7.44q16.9-108.72,26-218.46C55,6.41,34.32,2.09,27.74,13.56A241.49,241.49,0,0,0,.33,86.17c-1.48,7.41,2.12,15.12,9.78,17.22,6.9,1.89,15.73-2.33,17.22-9.78Z"/><path class="cls-1" d="M46.56,24.74l-7.2,91.07c-.6,7.55,6.86,14,14,14,8.07,0,13.4-6.43,14-14l7.2-91.07c.6-7.55-6.86-14-14-14-8.07,0-13.4,6.43-14,14Z"/><path class="cls-1" d="M770.58,181.46a745.87,745.87,0,0,0,4.49-112.88c-.27-7.56-6.24-14-14-14-7.44,0-14.19,6.41-14,14,1.15,45.14-15.8,88.37-17.13,133.52-.22,7.56,6.59,14,14,14,8.38,0,13-6.47,14-14,6.32-48.1,13.25-96.26,14.5-144.83.26-10.06-12.3-18.19-21.07-12.09-8.4,5.85-11.73,18.39-3,25.89,5.72,4.94,14.18,5.62,19.8,0,5-5,5.75-14.84,0-19.8l-.72-.62,3.6,6.18.22,1.84-1.91,7.07.42-.86-5,5,.78-.54L744.44,57.27c-1.25,48.57-8.18,96.73-14.5,144.83h28c1.32-44.92,18.28-88.17,17.13-133.52h-28a745.87,745.87,0,0,1-4.49,112.88c-.87,7.52,7.06,14,14,14,8.29,0,13.12-6.46,14-14Z"/></g></g></svg>