<?xml version="1.0" encoding="utf-8"?>
<!-- Generator: Adobe Illustrator 23.0.0, SVG Export Plug-In . SVG Version: 6.00 Build 0)  -->
<svg version="1.1" id="social" xmlns="http://www.w3.org/2000/svg" xmlns:xlink="http://www.w3.org/1999/xlink" x="0px" y="0px"
	 viewBox="0 0 200 200" style="enable-background:new 0 0 200 200;" xml:space="preserve">
<style type="text/css">
	.st0{fill:#F6F2EF;}
	.st1{opacity:0.1;fill:#010101;enable-background:new    ;}
	.st2{fill:#010101;}
	.st3{fill:#FFFFFF;}
	.st4{fill:none;}
</style>
<title>toolbox_icon_social</title>
<circle class="st0" cx="100.1" cy="100.1" r="90"/>
<ellipse class="st1" cx="138.2" cy="131.8" rx="37.3" ry="6.5"/>
<path class="st2" d="M137.2,131.4c-24.9,0-45-20.1-45-45s20.1-45,45-45s45,20.1,45,45S162,131.4,137.2,131.4z M137.2,49
	c-20.7,0-37.5,16.8-37.5,37.5c0,20.7,16.8,37.5,37.5,37.5c20.7,0,37.5-16.8,37.5-37.5c0,0,0,0,0,0C174.6,65.8,157.9,49,137.2,49
	L137.2,49z"/>
<circle class="st3" cx="137.2" cy="86.4" r="39.6"/>
<path class="st1" d="M154.5,50.9c17.7,12.8,21.7,37.5,8.9,55.2c-11.2,15.5-32,20.8-49.3,12.4c17.7,12.8,42.4,8.8,55.2-8.9
	c12.8-17.7,8.8-42.4-8.9-55.2C158.6,53.1,156.6,51.9,154.5,50.9z"/>
<ellipse class="st1" cx="74.8" cy="155.1" rx="41.7" ry="6.5"/>
<path class="st2" d="M137.4,100.7c-10.3,0-20-4.6-26.6-12.4c-0.8-1.3-0.4-3.1,0.9-3.9c1.1-0.7,2.6-0.5,3.5,0.4
	c0.7,0.9,17.9,21.5,44.7,2c1.3-0.9,3-0.5,3.9,0.8c0.8,1.2,0.5,2.9-0.6,3.8l0,0C153.8,98.1,145,100.7,137.4,100.7z"/>
<path class="st2" d="M75.1,57c27,0,48.9,21.9,48.9,48.8c0,27-21.9,48.9-48.8,48.9s-48.9-21.9-48.9-48.9c0,0,0,0,0,0l0,0
	C26.3,78.9,48.1,57,75.1,57z M116.5,105.9c0-22.8-18.5-41.4-41.3-41.4c-22.8,0-41.4,18.5-41.4,41.3c0,22.8,18.5,41.4,41.3,41.4
	c0,0,0,0,0,0C98,147.2,116.5,128.7,116.5,105.9C116.5,105.8,116.5,105.8,116.5,105.9L116.5,105.9z"/>
<path class="st2" d="M159.8,77.5c-0.8,0-1.6-0.4-2.2-1c-0.7-0.8-4.4-4.6-10.4-0.2c-1.2,1-3,0.8-4-0.4s-0.8-3,0.4-4
	c0.1-0.1,0.2-0.1,0.2-0.2l0,0c8.6-6.2,15.6-1.9,18.1,1.3c1,1.2,0.8,3-0.5,4C161.1,77.3,160.5,77.5,159.8,77.5L159.8,77.5z"/>
<path class="st2" d="M129.3,77.5c-0.8,0-1.6-0.4-2.2-1c-0.7-0.8-4.4-4.6-10.4-0.2c-1.3,0.9-3,0.6-3.9-0.6s-0.6-3,0.6-3.9l0,0
	c8.5-6.2,15.6-1.9,18.1,1.3c1,1.2,0.8,3-0.4,4C130.5,77.3,129.9,77.5,129.3,77.5L129.3,77.5z"/>
<circle class="st3" cx="75.1" cy="105.8" r="43.7"/>
<path class="st2" d="M60.2,94.6c0,2.4-1.9,4.3-4.3,4.3c-2.4,0-4.3-1.9-4.3-4.3s1.9-4.3,4.3-4.3c0,0,0,0,0,0l0,0
	C58.2,90.2,60.2,92.2,60.2,94.6z"/>
<path class="st2" d="M104,106.9c1.3-0.2,2.5,0.6,2.7,1.9c0,0,0,0,0,0c0.1,0.3,0.1,0.6,0,0.8c-2.4,12.3-15.7,21.7-31.5,21.7
	s-29-9.3-31.5-21.6c-0.3-1.3,0.5-2.5,1.8-2.8c0.3-0.1,0.7-0.1,1,0C57.3,109.2,93.2,109.1,104,106.9z"/>
<path class="st2" d="M99,94.6c0,2.4-1.9,4.3-4.3,4.3c-2.4,0-4.3-1.9-4.3-4.3s1.9-4.3,4.3-4.3c0,0,0,0,0,0l0,0
	C97.1,90.2,99,92.2,99,94.6z"/>
<path class="st4" d="M94.7,122.4c6.2-3.9,10.6-9.7,12-16.3c0.1-0.3,0.1-0.5,0-0.8c-0.2-1.3-1.4-2.1-2.7-1.9c0,0,0,0,0,0
	c-10.8,2.2-46.7,2.3-57.7,0.1c-0.3-0.1-0.7-0.1-1,0c-1.2,0.3-2,1.5-1.8,2.8c1.4,6.6,5.7,12.2,11.9,16.2
	C67.6,115.1,82.7,115.1,94.7,122.4L94.7,122.4z"/>
<path class="st3" d="M94.7,122.4c-12-7.3-27.1-7.3-39.2,0C67.6,129.6,82.7,129.6,94.7,122.4z"/>
<path class="st1" d="M104.2,73.3c16.1,17.9,14.6,45.5-3.3,61.7c-16.6,14.9-41.7,14.9-58.3,0c16.3,17.8,43.9,19,61.7,2.7
	c17.5-16,19-43.1,3.3-61C106.5,75.5,105.4,74.3,104.2,73.3z"/>
</svg>
