<svg xmlns="http://www.w3.org/2000/svg" viewBox="0 0 180 180"><defs><style>.cls-1{isolation:isolate;}.cls-2{fill:#f6f2ef;}.cls-3{opacity:0.2;mix-blend-mode:multiply;}.cls-4{fill:#231f20;}.cls-5{fill:#fff;}</style></defs><title>toolbox_icon_culture</title><g class="cls-1"><g id="Layer_2" data-name="Layer 2"><g id="social"><circle class="cls-2" cx="90" cy="90" r="90"/><g id="HkyCgN.tif"><g class="cls-3"><path class="cls-4" d="M159.07,137.55a2.44,2.44,0,0,1-2.13,1,5.72,5.72,0,0,1-2.71-.35q-4.56-1.77-9.13-3.49c-.66-.25-1.34-.44-2-.63a.59.59,0,0,0-.39.11A37.2,37.2,0,0,1,106.58,138a30.64,30.64,0,0,1-13.73-12l-.31-.48c-1.25.65-2.45,1.31-3.67,1.92a52.28,52.28,0,0,1-14.48,4.61,51.5,51.5,0,0,1-14.72.31,47.65,47.65,0,0,1-7.46-1.51,1.15,1.15,0,0,0-.61,0l-21.32,7.35c-.55.19-1.1.38-1.66.55a4.21,4.21,0,0,1-2.78-.07c-.66-.27-.78-.58-.38-1.15,1.53-2.17,3.07-4.34,4.64-6.48,2-2.67,4-5.31,6-8,.11-.14.21-.29.32-.44-.83-.76-1.67-1.48-2.46-2.24a42.79,42.79,0,0,1-11.08-17.17A35,35,0,0,1,21,94.62a48.13,48.13,0,0,1,1.54-16.29,45.62,45.62,0,0,1,5.94-13,50.55,50.55,0,0,1,9.3-11,51.14,51.14,0,0,1,16.87-9.59c.59-.2,1.19-.39,1.79-.57.19-.06.28-.14.25-.37a126.63,126.63,0,0,1-.68-17.42,22.65,22.65,0,0,1,.27-2.45,2.15,2.15,0,0,1,1.16-1.58A9,9,0,0,1,62.8,21.1a8.67,8.67,0,0,1,2.06.42,1.5,1.5,0,0,1,1.07,1.38c.61,4.26,1.25,8.51,1.88,12.76q.47,3.14.92,6.26a14.38,14.38,0,0,0,2.08,0,23.84,23.84,0,0,1,4.47,0,45.92,45.92,0,0,1,12.11,2.36,42.93,42.93,0,0,1,19.78,13.23,39.89,39.89,0,0,1,7,12.09c0,.11.1.22.15.34a.55.55,0,0,0,.19,0,30.4,30.4,0,0,1,10.58-1.49,33.87,33.87,0,0,1,15.56,3.83,32.8,32.8,0,0,1,11.6,10.29,33.82,33.82,0,0,1,6.15,17,39.25,39.25,0,0,1-5.11,23,.65.65,0,0,0,0,.72c1,2.15,2,4.31,2.9,6.48.71,1.68,1.38,3.38,2,5.08.27.69.44,1.42.67,2.13a1.28,1.28,0,0,0,.17.3ZM57.11,48l-.4.14a45.13,45.13,0,0,0-11.23,6.93,47.71,47.71,0,0,0-9.57,10.39,45.36,45.36,0,0,0-5.28,11.28,40.57,40.57,0,0,0-1.94,16.41,48.58,48.58,0,0,0,2.55,11.79,36.29,36.29,0,0,0,7.9,13,8.73,8.73,0,0,0,2.41,2.12c.09,0,.15.15.22.23a3.92,3.92,0,0,0,.43.54,37.39,37.39,0,0,0,20.44,8.61,38.16,38.16,0,0,0,16.25-1.92,45.23,45.23,0,0,0,18.49-11.87,46.48,46.48,0,0,0,9.78-15.49,43.74,43.74,0,0,0,2.9-13.93A45,45,0,0,0,109,74.4a37,37,0,0,0-6.37-13.86A36.81,36.81,0,0,0,73.93,45c-1-.06-1.91-.13-2.86-.14-.62,0-1.24.07-1.89.11.09.64.18,1.2.26,1.77L71,57.27q.82,5.55,1.64,11.09.78,5.28,1.57,10.54c.44,3,.89,6,1.31,9a1.76,1.76,0,0,1-.24,1,2.17,2.17,0,0,1-.65.63,8,8,0,0,1-3.78,1.3c-.71.08-1.45,0-2.14.13a11.49,11.49,0,0,1-3.61-.07,2.21,2.21,0,0,1-.63-.24,6.37,6.37,0,0,0-.72-.29A2.77,2.77,0,0,1,61.69,89a4.72,4.72,0,0,1-.45-1.6c-.18-1.58-.28-3.16-.42-4.73-.19-2.18-.4-4.35-.61-6.52s-.44-4.07-.65-6.11c-.36-3.56-.7-7.12-1.09-10.68-.33-3-.72-6-1.08-9C57.29,49.6,57.21,48.81,57.11,48Zm43.57,79.54c0,.06,0,.09,0,.11l.15.19a30.59,30.59,0,0,0,7.49,6.35.52.52,0,0,0,.62,0c1.43-.88,2.88-1.72,4.27-2.65,2.73-1.81,5.41-3.68,8.14-5.49,4.29-2.83,8.6-5.61,12.88-8.45,4.8-3.17,9.79-6,14.88-8.71a5.8,5.8,0,0,1,1.07-.42.41.41,0,0,0,.33-.41A36.51,36.51,0,0,0,150,95.6c0-.21-.11-.42-.17-.67l-.35.22c-5,3.44-10.06,6.83-15,10.34-5.46,3.84-11,7.54-16.72,11S106.31,123.75,100.68,127.52ZM143.49,82l-1,.72-26.71,18.56c-.91.63-1.84,1.21-2.76,1.83a1.38,1.38,0,0,0-.48.48,48.24,48.24,0,0,1-11.09,15.23c-1.26,1.17-2.63,2.24-3.94,3.37-.1.09-.21.29-.17.4a5.53,5.53,0,0,0,.42.79l.5-.34c3-2,5.89-4.06,8.9-6,4.4-2.81,8.9-5.44,13.27-8.29,5.34-3.5,10.66-7,16.12-10.36,3.63-2.22,7.28-4.4,11.12-6.25l1.15-.54A31.87,31.87,0,0,0,143.49,82Zm-29.44,54.7a21.61,21.61,0,0,0,6.85,1.06,26,26,0,0,0,14.65-4.93,35.4,35.4,0,0,0,13.84-19.41c0-.14.07-.28.13-.52l-.44.29q-8.69,5.94-17.36,11.88c-2.71,1.85-5.46,3.62-8.13,5.51a67.85,67.85,0,0,1-9.11,5.81A3.68,3.68,0,0,0,114.05,136.68Zm27.2-57.23-.39-.32a28.86,28.86,0,0,0-7.65-5.07,1.2,1.2,0,0,0-1.46.18c-3,2.35-6,4.65-9.06,7a32.57,32.57,0,0,1-5.5,3.45.5.5,0,0,0-.33.5,45.07,45.07,0,0,1-1,8.51L115.55,95C123.86,89.34,132.09,83.74,141.25,79.45Zm-24.69-1,10.21-6.28-.9-.12a24,24,0,0,0-6.45.2l-4.1.57Z"/><path class="cls-4" d="M57.11,48c.1.83.18,1.62.28,2.41.36,3,.75,6,1.08,9,.39,3.56.73,7.12,1.09,10.68.21,2,.44,4.07.65,6.11s.42,4.34.61,6.52c.14,1.57.24,3.15.42,4.73a4.72,4.72,0,0,0,.45,1.6,2.77,2.77,0,0,0,2.06,1.35,6.37,6.37,0,0,1,.72.29,2.21,2.21,0,0,0,.63.24,11.49,11.49,0,0,0,3.61.07c.69-.15,1.43-.05,2.14-.13a8,8,0,0,0,3.78-1.3,2.17,2.17,0,0,0,.65-.63,1.76,1.76,0,0,0,.24-1c-.42-3-.87-6-1.31-9q-.78-5.27-1.57-10.54Q71.83,62.83,71,57.27L69.44,46.7c-.08-.57-.17-1.13-.26-1.77.65,0,1.27-.12,1.89-.11,1,0,1.91.08,2.86.14a36.81,36.81,0,0,1,28.66,15.58A37,37,0,0,1,109,74.4a45,45,0,0,1,1.1,11.85,43.74,43.74,0,0,1-2.9,13.93,46.48,46.48,0,0,1-9.78,15.49,45.23,45.23,0,0,1-18.49,11.87,38.16,38.16,0,0,1-16.25,1.92,37.39,37.39,0,0,1-20.44-8.61,3.92,3.92,0,0,1-.43-.54c-.07-.08-.13-.19-.22-.23A8.73,8.73,0,0,1,39.14,118a36.29,36.29,0,0,1-7.9-13,48.58,48.58,0,0,1-2.55-11.79,40.57,40.57,0,0,1,1.94-16.41,45.36,45.36,0,0,1,5.28-11.28,47.71,47.71,0,0,1,9.57-10.39,45.13,45.13,0,0,1,11.23-6.93Zm14.58,58.7c.9-.12,1.8-.19,2.68-.38a10.16,10.16,0,0,0,3.82-2.07,3.08,3.08,0,0,0,1.13-1.71,8.58,8.58,0,0,0,.36-1.87A5.76,5.76,0,0,0,77,95.15a9.51,9.51,0,0,0-5.17-1.24,12.83,12.83,0,0,0-4,.82A6.48,6.48,0,0,0,63,99.92a4,4,0,0,0,.58,3,7,7,0,0,0,2.71,2.47A13.72,13.72,0,0,0,71.69,106.68Z"/><path class="cls-4" d="M100.68,127.52c5.63-3.77,11.21-7.58,17-11.06s11.26-7.13,16.72-11c5-3.51,10-6.9,15-10.34l.35-.22c.06.25.12.46.17.67a36.51,36.51,0,0,1,.59,12.42.41.41,0,0,1-.33.41,5.8,5.8,0,0,0-1.07.42c-5.09,2.68-10.08,5.54-14.88,8.71-4.28,2.84-8.59,5.62-12.88,8.45-2.73,1.81-5.41,3.68-8.14,5.49-1.39.93-2.84,1.77-4.27,2.65a.52.52,0,0,1-.62,0,30.59,30.59,0,0,1-7.49-6.35l-.15-.19S100.7,127.58,100.68,127.52Z"/><path class="cls-4" d="M143.49,82a31.87,31.87,0,0,1,5.31,9.61l-1.15.54c-3.84,1.85-7.49,4-11.12,6.25-5.46,3.33-10.78,6.86-16.12,10.36-4.37,2.85-8.87,5.48-13.27,8.29-3,1.93-5.94,4-8.9,6l-.5.34a5.53,5.53,0,0,1-.42-.79c0-.11.07-.31.17-.4,1.31-1.13,2.68-2.2,3.94-3.37a48.24,48.24,0,0,0,11.09-15.23,1.38,1.38,0,0,1,.48-.48c.92-.62,1.85-1.2,2.76-1.83L142.47,82.7Z"/><path class="cls-4" d="M114.05,136.68a3.68,3.68,0,0,1,.43-.31,67.85,67.85,0,0,0,9.11-5.81c2.67-1.89,5.42-3.66,8.13-5.51q8.68-5.92,17.36-11.88l.44-.29c-.06.24-.09.38-.13.52a35.4,35.4,0,0,1-13.84,19.41,26,26,0,0,1-14.65,4.93A21.61,21.61,0,0,1,114.05,136.68Z"/><path class="cls-4" d="M141.25,79.45c-9.16,4.29-17.39,9.89-25.7,15.57l.29-1.36a45.07,45.07,0,0,0,1-8.51.5.5,0,0,1,.33-.5,32.57,32.57,0,0,0,5.5-3.45c3-2.31,6.06-4.61,9.06-7a1.2,1.2,0,0,1,1.46-.18,28.86,28.86,0,0,1,7.65,5.07Z"/><path class="cls-4" d="M116.56,78.45l-1.24-5.63,4.1-.57a24,24,0,0,1,6.45-.2l.9.12Z"/><path class="cls-4" d="M71.69,106.68a13.72,13.72,0,0,1-5.43-1.24A7,7,0,0,1,63.55,103a4,4,0,0,1-.58-3,6.48,6.48,0,0,1,4.84-5.19,12.83,12.83,0,0,1,4-.82A9.51,9.51,0,0,1,77,95.15a5.76,5.76,0,0,1,2.73,5.5,8.58,8.58,0,0,1-.36,1.87,3.08,3.08,0,0,1-1.13,1.71,10.16,10.16,0,0,1-3.82,2.07C73.49,106.49,72.59,106.56,71.69,106.68Z"/></g><path d="M157.07,135.55a2.44,2.44,0,0,1-2.13,1,5.72,5.72,0,0,1-2.71-.35q-4.56-1.77-9.13-3.49c-.66-.25-1.34-.44-2-.63a.59.59,0,0,0-.39.11A37.2,37.2,0,0,1,104.58,136a30.64,30.64,0,0,1-13.73-12l-.31-.48c-1.25.65-2.45,1.31-3.67,1.92a52.28,52.28,0,0,1-14.48,4.61,51.5,51.5,0,0,1-14.72.31,47.65,47.65,0,0,1-7.46-1.51,1.15,1.15,0,0,0-.61,0l-21.32,7.35c-.55.19-1.1.38-1.66.55a4.21,4.21,0,0,1-2.78-.07c-.66-.27-.78-.58-.38-1.15,1.53-2.17,3.07-4.34,4.64-6.48,2-2.67,4-5.31,6-8,.11-.14.21-.29.32-.44-.83-.76-1.67-1.48-2.46-2.24a42.79,42.79,0,0,1-11.08-17.17A35,35,0,0,1,19,92.62a48.13,48.13,0,0,1,1.54-16.29,45.62,45.62,0,0,1,5.94-13,50.55,50.55,0,0,1,9.3-11,51.14,51.14,0,0,1,16.87-9.59c.59-.2,1.19-.39,1.79-.57.19-.06.28-.14.25-.37a126.63,126.63,0,0,1-.68-17.42,22.65,22.65,0,0,1,.27-2.45,2.15,2.15,0,0,1,1.16-1.58A9,9,0,0,1,60.8,19.1a8.67,8.67,0,0,1,2.06.42,1.5,1.5,0,0,1,1.07,1.38c.61,4.26,1.25,8.51,1.88,12.76q.47,3.14.92,6.26a14.38,14.38,0,0,0,2.08,0,23.84,23.84,0,0,1,4.47,0,45.92,45.92,0,0,1,12.11,2.36,42.93,42.93,0,0,1,19.78,13.23,39.89,39.89,0,0,1,7,12.09c0,.11.1.22.15.34a.55.55,0,0,0,.19,0,30.4,30.4,0,0,1,10.58-1.49,33.87,33.87,0,0,1,15.56,3.83,32.8,32.8,0,0,1,11.6,10.29,33.82,33.82,0,0,1,6.15,17,39.25,39.25,0,0,1-5.11,23,.65.65,0,0,0,0,.72c1,2.15,2,4.31,2.9,6.48.71,1.68,1.38,3.38,2,5.08.27.69.44,1.42.67,2.13a1.28,1.28,0,0,0,.17.3ZM55.11,46l-.4.14a45.13,45.13,0,0,0-11.23,6.93,47.71,47.71,0,0,0-9.57,10.39,45.36,45.36,0,0,0-5.28,11.28,40.57,40.57,0,0,0-1.94,16.41,48.58,48.58,0,0,0,2.55,11.79,36.29,36.29,0,0,0,7.9,13,8.73,8.73,0,0,0,2.41,2.12c.09,0,.15.15.22.23a3.92,3.92,0,0,0,.43.54,37.39,37.39,0,0,0,20.44,8.61,38.16,38.16,0,0,0,16.25-1.92,45.23,45.23,0,0,0,18.49-11.87,46.48,46.48,0,0,0,9.78-15.49,43.74,43.74,0,0,0,2.9-13.93A45,45,0,0,0,107,72.4a37,37,0,0,0-6.37-13.86A36.81,36.81,0,0,0,71.93,43c-1-.06-1.91-.13-2.86-.14-.62,0-1.24.07-1.89.11.09.64.18,1.2.26,1.77L69,55.27q.82,5.55,1.64,11.09.78,5.28,1.57,10.54c.44,3,.89,6,1.31,9a1.76,1.76,0,0,1-.24,1,2.17,2.17,0,0,1-.65.63,8,8,0,0,1-3.78,1.3c-.71.08-1.45,0-2.14.13a11.49,11.49,0,0,1-3.61-.07,2.21,2.21,0,0,1-.63-.24,6.37,6.37,0,0,0-.72-.29A2.77,2.77,0,0,1,59.69,87a4.72,4.72,0,0,1-.45-1.6c-.18-1.58-.28-3.16-.42-4.73-.19-2.18-.4-4.35-.61-6.52s-.44-4.07-.65-6.11c-.36-3.56-.7-7.12-1.09-10.68-.33-3-.72-6-1.08-9C55.29,47.6,55.21,46.81,55.11,46Zm43.57,79.54c0,.06,0,.09,0,.11l.15.19a30.59,30.59,0,0,0,7.49,6.35.52.52,0,0,0,.62,0c1.43-.88,2.88-1.72,4.27-2.65,2.73-1.81,5.41-3.68,8.14-5.49,4.29-2.83,8.6-5.61,12.88-8.45,4.8-3.17,9.79-6,14.88-8.71a5.8,5.8,0,0,1,1.07-.42.41.41,0,0,0,.33-.41A36.51,36.51,0,0,0,148,93.6c0-.21-.11-.42-.17-.67l-.35.22c-5,3.44-10.06,6.83-15,10.34-5.46,3.84-11,7.54-16.72,11S104.31,121.75,98.68,125.52ZM141.49,80l-1,.72L113.76,99.26c-.91.63-1.84,1.21-2.76,1.83a1.38,1.38,0,0,0-.48.48A48.24,48.24,0,0,1,99.43,116.8c-1.26,1.17-2.63,2.24-3.94,3.37-.1.09-.21.29-.17.4a5.53,5.53,0,0,0,.42.79l.5-.34c3-2,5.89-4.06,8.9-6,4.4-2.81,8.9-5.44,13.27-8.29,5.34-3.5,10.66-7,16.12-10.36,3.63-2.22,7.28-4.4,11.12-6.25l1.15-.54A31.87,31.87,0,0,0,141.49,80Zm-29.44,54.7a21.61,21.61,0,0,0,6.85,1.06,26,26,0,0,0,14.65-4.93,35.4,35.4,0,0,0,13.84-19.41c0-.14.07-.28.13-.52l-.44.29q-8.69,5.94-17.36,11.88c-2.71,1.85-5.46,3.62-8.13,5.51a67.85,67.85,0,0,1-9.11,5.81A3.68,3.68,0,0,0,112.05,134.68Zm27.2-57.23-.39-.32a28.86,28.86,0,0,0-7.65-5.07,1.2,1.2,0,0,0-1.46.18c-3,2.35-6,4.65-9.06,7a32.57,32.57,0,0,1-5.5,3.45.5.5,0,0,0-.33.5,45.07,45.07,0,0,1-1,8.51L113.55,93C121.86,87.34,130.09,81.74,139.25,77.45Zm-24.69-1,10.21-6.28-.9-.12a24,24,0,0,0-6.45.2l-4.1.57Z"/><path class="cls-5" d="M55.11,46c.1.83.18,1.62.28,2.41.36,3,.75,6,1.08,9,.39,3.56.73,7.12,1.09,10.68.21,2,.44,4.07.65,6.11s.42,4.34.61,6.52c.14,1.57.24,3.15.42,4.73a4.72,4.72,0,0,0,.45,1.6,2.77,2.77,0,0,0,2.06,1.35,6.37,6.37,0,0,1,.72.29,2.21,2.21,0,0,0,.63.24,11.49,11.49,0,0,0,3.61.07c.69-.15,1.43-.05,2.14-.13a8,8,0,0,0,3.78-1.3,2.17,2.17,0,0,0,.65-.63,1.76,1.76,0,0,0,.24-1c-.42-3-.87-6-1.31-9q-.78-5.27-1.57-10.54Q69.83,60.83,69,55.27L67.44,44.7c-.08-.57-.17-1.13-.26-1.77.65,0,1.27-.12,1.89-.11,1,0,1.91.08,2.86.14a36.81,36.81,0,0,1,28.66,15.58A37,37,0,0,1,107,72.4a45,45,0,0,1,1.1,11.85,43.74,43.74,0,0,1-2.9,13.93,46.48,46.48,0,0,1-9.78,15.49,45.23,45.23,0,0,1-18.49,11.87,38.16,38.16,0,0,1-16.25,1.92,37.39,37.39,0,0,1-20.44-8.61,3.92,3.92,0,0,1-.43-.54c-.07-.08-.13-.19-.22-.23A8.73,8.73,0,0,1,37.14,116a36.29,36.29,0,0,1-7.9-13,48.58,48.58,0,0,1-2.55-11.79,40.57,40.57,0,0,1,1.94-16.41,45.36,45.36,0,0,1,5.28-11.28,47.71,47.71,0,0,1,9.57-10.39,45.13,45.13,0,0,1,11.23-6.93Zm14.58,58.7c.9-.12,1.8-.19,2.68-.38a10.16,10.16,0,0,0,3.82-2.07,3.08,3.08,0,0,0,1.13-1.71,8.58,8.58,0,0,0,.36-1.87A5.76,5.76,0,0,0,75,93.15a9.51,9.51,0,0,0-5.17-1.24,12.83,12.83,0,0,0-4,.82A6.48,6.48,0,0,0,61,97.92a4,4,0,0,0,.58,3,7,7,0,0,0,2.71,2.47A13.72,13.72,0,0,0,69.69,104.68Z"/><path class="cls-5" d="M98.68,125.52c5.63-3.77,11.21-7.58,17-11.06s11.26-7.13,16.72-11c5-3.51,10-6.9,15-10.34l.35-.22c.06.25.12.46.17.67a36.51,36.51,0,0,1,.59,12.42.41.41,0,0,1-.33.41,5.8,5.8,0,0,0-1.07.42c-5.09,2.68-10.08,5.54-14.88,8.71-4.28,2.84-8.59,5.62-12.88,8.45-2.73,1.81-5.41,3.68-8.14,5.49-1.39.93-2.84,1.77-4.27,2.65a.52.52,0,0,1-.62,0,30.59,30.59,0,0,1-7.49-6.35l-.15-.19S98.7,125.58,98.68,125.52Z"/><path class="cls-5" d="M141.49,80a31.87,31.87,0,0,1,5.31,9.61l-1.15.54c-3.84,1.85-7.49,4-11.12,6.25-5.46,3.33-10.78,6.86-16.12,10.36-4.37,2.85-8.87,5.48-13.27,8.29-3,1.93-5.94,4-8.9,6l-.5.34a5.53,5.53,0,0,1-.42-.79c0-.11.07-.31.17-.4,1.31-1.13,2.68-2.2,3.94-3.37a48.24,48.24,0,0,0,11.09-15.23,1.38,1.38,0,0,1,.48-.48c.92-.62,1.85-1.2,2.76-1.83L140.47,80.7Z"/><path class="cls-5" d="M112.05,134.68a3.68,3.68,0,0,1,.43-.31,67.85,67.85,0,0,0,9.11-5.81c2.67-1.89,5.42-3.66,8.13-5.51q8.68-5.92,17.36-11.88l.44-.29c-.06.24-.09.38-.13.52a35.4,35.4,0,0,1-13.84,19.41,26,26,0,0,1-14.65,4.93A21.61,21.61,0,0,1,112.05,134.68Z"/><path class="cls-5" d="M139.25,77.45c-9.16,4.29-17.39,9.89-25.7,15.57l.29-1.36a45.07,45.07,0,0,0,1-8.51.5.5,0,0,1,.33-.5,32.57,32.57,0,0,0,5.5-3.45c3-2.31,6.06-4.61,9.06-7a1.2,1.2,0,0,1,1.46-.18,28.86,28.86,0,0,1,7.65,5.07Z"/><path class="cls-5" d="M114.56,76.45l-1.24-5.63,4.1-.57a24,24,0,0,1,6.45-.2l.9.12Z"/><path d="M69.69,104.68a13.72,13.72,0,0,1-5.43-1.24A7,7,0,0,1,61.55,101a4,4,0,0,1-.58-3,6.48,6.48,0,0,1,4.84-5.19,12.83,12.83,0,0,1,4-.82A9.51,9.51,0,0,1,75,93.15a5.76,5.76,0,0,1,2.73,5.5,8.58,8.58,0,0,1-.36,1.87,3.08,3.08,0,0,1-1.13,1.71,10.16,10.16,0,0,1-3.82,2.07C71.49,104.49,70.59,104.56,69.69,104.68Z"/></g></g></g></g></svg>