<svg xmlns="http://www.w3.org/2000/svg" viewBox="0 0 200 200"><defs><style>.cls-1{fill:#f6f2ef;}.cls-2{fill:#fff;}.cls-3{fill:none;}.cls-4{fill:#cccccb;}</style></defs><title>toolbox_icon_1on1</title><g id="social"><circle class="cls-1" cx="100.12" cy="100.12" r="90"/><path class="cls-2" d="M26.77,86.25a36.15,36.15,0,0,0,.45,5.6,5.5,5.5,0,0,1-.4,3.26,5.2,5.2,0,0,1-3,2.8A18.35,18.35,0,0,0,17,102.82a7.77,7.77,0,0,0-2.06,3.63,26.6,26.6,0,0,0-.59,2.79c-.1.71-.1,1.42-.13,2.16l-.25.19-.24-.12-4.19-2-4.08-1.84a5.88,5.88,0,0,0-1.21-.45,1.59,1.59,0,0,0-1.39.32,5.22,5.22,0,0,1-.5-1.44c5.38-5.41,4.11-14,6.87-21.07,1.57-4-3.07-14.35.39-17.12a5.21,5.21,0,0,1,2.92-1.21.77.77,0,0,0,.19.8,1.78,1.78,0,0,0,.51.35C16.08,69.24,29,74.62,31.83,76l.52.25c-1.14,1.29-2.27,2.55-3.38,3.82A8.77,8.77,0,0,0,26.77,86.25Z"/><path class="cls-2" d="M197.68,106.29a51.16,51.16,0,0,0-8.43,2.56c-2.31.94-4.64,1.83-7,2.74-.16.06-.34.1-.63.18a2.68,2.68,0,0,0,.13-2.47,12,12,0,0,0-.58-1.39c-1.17-2.44-2.33-4.89-3.54-7.31-1.91-3.83-3.94-7.61-5.79-11.48-2.53-5.31-5.16-10.56-8.15-15.63-.08-.13-.13-.27-.21-.42l.45-.25.14-.08c4.24-2.14,8.5-4.27,12.72-6.44,1.53-.79,3-1.62,4.48-2.54.88-.57,1.74-1.17,2.6-1.77,3.2,1.1,2.1,6.48,2.54,10.55C186.76,75.49,193.49,103.47,197.68,106.29Z"/><path class="cls-2" d="M170.67,109.86c.63,1.75,1,3.58,1.53,5.39L167.69,117c-.08-.3-.14-.57-.22-.83a65.91,65.91,0,0,0-6.35-15c-2-3.58-4.11-7.08-6.11-10.65-.91-1.63-1.64-3.37-2.52-5-1.14-2.1-2.34-4.17-3.51-6.26l-.24-.41L156.52,76c1.83,3.85,3.7,7.59,5.38,11.4s3,7.44,4.51,11.18S169.32,106.07,170.67,109.86Z"/><path class="cls-2" d="M157.79,102.15c.81,1.5,1.59,3,2.31,4.52l-.78.36c.05-.07.09-.16.13-.23-.15,0-.32-.14-.46-.1a16.27,16.27,0,0,0-2.59.72,68.5,68.5,0,0,0-12.23,7,59.19,59.19,0,0,0-8.9,7.09c-3.17,3.3-6.71,6.19-10,9.32a6,6,0,0,1-5,1.81c-1-.14-2-.49-3-.69a2.25,2.25,0,0,1-1.5-1.31c1.07-.67,2.12-1.34,3.18-2a12.07,12.07,0,0,0,4.14-4,4,4,0,0,0,.62-3.13,7.23,7.23,0,0,0-1.89-3.6c-.7-.69-1.46-1.33-2.19-2a1.28,1.28,0,0,0,.34-.07,25.06,25.06,0,0,0,2.41-.94,2.05,2.05,0,0,0,1.08-1.9,4.16,4.16,0,0,0-.64-2.53c-.69-1-1.41-2-2.14-3-.42-.56-.91-1.07-1.29-1.52,1-.88,1.88-1.73,2.78-2.58.24-.23.4-.51.19-.83a.65.65,0,0,0-.88-.2,3.6,3.6,0,0,0-.66.3c-.75.47-1.53.91-2.23,1.44a1.25,1.25,0,0,1-1.58.09c-2.41-1.22-4.88-2.32-7.34-3.45-.38-.18-3.46-1.4-3.39-1.59s.22-.21.33-.32a.8.8,0,0,0,.17-.84,2.28,2.28,0,0,0-.5-.76,3.59,3.59,0,0,0-2.37-1.59,2.77,2.77,0,0,0-1.71.66A12,12,0,0,0,100.52,98c-.55.63-1.1,1.26-1.63,1.9a29.52,29.52,0,0,1-11,8.07,7.16,7.16,0,0,1-3.75.37c-.76-.1-1.73-1-1.75-1.58a10.75,10.75,0,0,1,1.15-4.85,4.39,4.39,0,0,1,.92-1.49,1.67,1.67,0,0,1,1.09-.44,1,1,0,0,1,.54.13,1.42,1.42,0,0,1,.67,1,2.8,2.8,0,0,1-.49,2c-.49.75-1.21,1.29-1.74,2-.38.51-.43.84.24,1a2,2,0,0,0,1.89-.48,8.19,8.19,0,0,0,2.1-2.94,2.92,2.92,0,0,0-.33-2.88,2.48,2.48,0,0,0-1.14-.8c-.26-.1-1.37-.41-1.59-.12,1.69-2.27,3.47-4.49,5.36-6.6a16.68,16.68,0,0,1,2.53-2.51A22.73,22.73,0,0,1,97,87.68a9.5,9.5,0,0,1,5.27-.91,58.25,58.25,0,0,1,6.31.58c2.23.36,4.41,1.05,6.63,1.54,2.43.54,4.87,1.1,7.33,1.52a44.5,44.5,0,0,0,8,.36,14.08,14.08,0,0,0,1.71-.14A38.43,38.43,0,0,0,141.5,88a10.71,10.71,0,0,0,6.27-5.48s.07-.06.21-.15c.72,1.56,1.44,3.1,2.14,4.64.79,1.76,1.46,3.57,2.34,5.28C154.18,95.58,156,98.85,157.79,102.15Z"/><path class="cls-2" d="M120.61,111.89c.43.66.27,1-.49,1.26a8.74,8.74,0,0,1-4.54.07c-1.92-.46-3.79-1.09-5.69-1.64-1.23-.35-2.45-.76-3.7-1a1.47,1.47,0,0,0-1.83,1c-.17.55-.11,1.43,1.18,1.88a41.9,41.9,0,0,0,4.48,1.35,27.18,27.18,0,0,1,7.45,3,7,7,0,0,1,2.92,3.46,1.75,1.75,0,0,1-.33,2.11,31,31,0,0,1-2.7,2.43c-.87.68-1.88,1.18-2.79,1.82a2,2,0,0,1-1.91.31c-1.73-.57-3.45-1.14-5.19-1.69-2.08-.66-4.17-1.32-6.26-1.94a5.38,5.38,0,0,0-1.39-.13.94.94,0,0,0-1,.58.92.92,0,0,0,.23,1.1,4.84,4.84,0,0,0,1.42.93c3.7,1.4,7.42,2.75,11.13,4.11.13.05.27.08.4.12.29.1.68.11.86.3s.95,5.07-5.15,4c-1.17-.21-2.31-.6-3.47-.93-1.43-.41-2.85-.85-4.29-1.24a7.48,7.48,0,0,0-1.5-.15c-.4,0-.55.22-.41.56a2.07,2.07,0,0,0,.51.83,5.23,5.23,0,0,0,1.39.89c2,.83,4.06,1.6,6.09,2.4l.36.14a12.72,12.72,0,0,1-1.18,2.19,19.11,19.11,0,0,1-2.21,2.1c-.58.5-1.22.92-1.81,1.39a.72.72,0,0,1-.86.14l-5-2.51-.11-.08c.26-.78.48-1.57.79-2.32a11.49,11.49,0,0,0,.35-5.9,17.45,17.45,0,0,0-.47-2.35,2.35,2.35,0,0,0-2.2-2,14.9,14.9,0,0,0-1.76-.14,15.38,15.38,0,0,0-1.73.21,1.15,1.15,0,0,1,0-.21,5.66,5.66,0,0,0-.59-3.87c-.37-.63-.67-1.29-1.09-1.88-1.13-1.6-2.72-1.77-4.45-1.28a12.13,12.13,0,0,0-1.59.66l-.42.14c0-.65,0-1.26,0-1.86a2.41,2.41,0,0,0-1.54-2.06,4.33,4.33,0,0,0-3.86,0c-1,.5-2.15.9-3.18,1.42a17.24,17.24,0,0,0-1.89,1.26,9.17,9.17,0,0,1,.22-2c.24-2.28-1.87-5.8-6.73-1.65-1.6,1.37-3,2.92-4.49,4.41-1.2-.6-2-2-2.94-2.94-1.11-1.23-2.26-2.44-3.43-3.62a21.65,21.65,0,0,0-6.57-4.94,9.49,9.49,0,0,0-2.13-.7,10.49,10.49,0,0,1-2.62-1c-1.18-.81-.26-1.65.23-2.41,1.58-2.5,3.09-5,4.5-7.64q1.41-2.58,2.7-5.2c.34-.68,1.2-3.6,2.12-3.46a4.3,4.3,0,0,1,1,.42,30.15,30.15,0,0,1,4,2.13c1.55,1,3.25,1.8,4.87,2.68,1,.52,1.86,1.16,2.83,1.67a7.34,7.34,0,0,0,3.92.58,5.94,5.94,0,0,0,2.95-1.47c.45-.32.86-.69,1.3-1,2.47-1.94,5.29-3.59,8.36-3.69a6.23,6.23,0,0,1,1.25.12,13.31,13.31,0,0,1,3.65,1.45c-.34.37-.68.69-1,1A59,59,0,0,0,82,98.31a25.5,25.5,0,0,0-2.1,4.45,7.54,7.54,0,0,0-.6,3.2A5.28,5.28,0,0,0,83.49,111l.05,0c3.17,1.18,5.84,0,8.36-1.81,2.09-1.51,4.13-3.1,6.22-4.62a13.2,13.2,0,0,0,3.08-3.07A16.22,16.22,0,0,1,103,99.67a27.71,27.71,0,0,0,6.79,3.82,27.76,27.76,0,0,1,6.79,3.69A20.28,20.28,0,0,1,120.61,111.89Z"/><path class="cls-2" d="M30.53,121.87c-.83-.53-1.65-1-2.42-1.52q-2.14-1.44-4.24-2.93a1.1,1.1,0,0,1-.39-.56c-.94-3-.08-5.65,1.45-8.19a14,14,0,0,1,1.41-1.86,7.15,7.15,0,0,1,3.95-2.36,10.92,10.92,0,0,0,3.16-1.3,5.73,5.73,0,0,0,2.75-4.42,22.9,22.9,0,0,0-.69-8.29c-.19-.92-.3-1.85-.47-2.77a3.82,3.82,0,0,1,1.46-3.59c1.06-1,2.1-2,3.15-3,.17-.17.32-.36.51-.59a106.35,106.35,0,0,1,9,6.16c-.09.16-.15.29-.23.42-.86,1.37-1.69,2.76-2.59,4.09a127.86,127.86,0,0,0-11.07,20.79c-1.44,3.27-3,6.47-4.55,9.7A1.59,1.59,0,0,1,30.53,121.87Z"/><path class="cls-3" d="M41.9,58.82a1.16,1.16,0,0,1,0-1l.42.07"/><path class="cls-4" d="M61,120.69c1.47-2.32,3-4.71,5.37-6.12s5.74-1.5,7.55.55a9.79,9.79,0,0,0,1.42,1.64c1,.75,2.42.56,3.68.44,2.08-.21,4.42,0,5.89,1.44a7.76,7.76,0,0,0,.86.86,7.82,7.82,0,0,0,2.21.7c3.06,1,3.56,5.3,6.16,7.2.69.51,1.51.82,2.23,1.3a5.91,5.91,0,0,1,2.61,5.13,11.72,11.72,0,0,1-1,3.69A7.81,7.81,0,0,1,96.58,140a2.6,2.6,0,0,1-2.55.85,18.94,18.94,0,0,0-6.81-.85,10.4,10.4,0,0,1-3.43,0c-1.44-.38-2.48-1.61-3.53-2.69a47.66,47.66,0,0,0-5.57-4.65l-9.39-7.06a32.31,32.31,0,0,1-4.9-4.21A.83.83,0,0,1,61,120.69Z"/><path class="cls-4" d="M90.24,113.24c2.86-.91,5.18-3,7.2-5.23s3.89-4.62,6.29-6.42a5,5,0,0,0,1.29-1.18,1.3,1.3,0,0,0-1.58-2A4.08,4.08,0,0,0,102,99.52a64.58,64.58,0,0,1-7.85,7.58,16.16,16.16,0,0,1-10.09,3.58,2.59,2.59,0,0,0-1.94.38C83.38,113.78,87.78,114,90.24,113.24Z"/><path class="cls-4" d="M125.22,115.45a8.24,8.24,0,0,0-.47,1.51c-.26,2,1.75,3.64,2,5.65s-1.28,4-2.75,5.48l-3.72,3.85c-.89.92-2.16,1.91-3.3,1.36a2,2,0,0,1-.86-2.41,4.87,4.87,0,0,1,1.65-2.2c1.49-1.26,3.21-2.3,4.39-3.87s1.63-3.92.37-5.42a12.86,12.86,0,0,0-2.49-1.8,2.51,2.51,0,0,1-1.22-2.61l3.1-.41a1.82,1.82,0,0,0,1-.37c.52-.48.31-1.35,0-2a13,13,0,0,0-2.84-3.9,1.88,1.88,0,0,1-.78-1.21c0-.67.7-1.09,1.33-1.31C125,104.32,126.18,112.73,125.22,115.45Z"/><path class="cls-4" d="M147.37,82a1.06,1.06,0,0,1,1-.16,1,1,0,0,1,.39.49l12.48,24.2c-2.3.18-2.55-.13-4.55,1-.94-2.29-2.15-3.53-3.39-6.3-1.46-3.27-2.44-6.72-4.17-9.86l-2.47-4.48c-.41-.73-1.72-2.23-1.59-3.1S146.61,82.46,147.37,82Z"/><path class="cls-4" d="M43.59,104.4a6.61,6.61,0,0,0-.87,2.36,2.28,2.28,0,0,0,1,2.19.94.94,0,0,0,1,0,1.29,1.29,0,0,0,.38-.61,97.68,97.68,0,0,1,7.4-15.18,6.79,6.79,0,0,0,1.23-3.06c.08-1.87-1.08-2.34-2.07-.87s-1.56,3.48-2.4,5.09C47.47,97.75,45.41,101,43.59,104.4Z"/><path d="M182.5,112.81a3,3,0,0,1-1.62.31c-1.09-.2-1.59-1.46-1.91-2.53-3.69-12.1-10.91-22.75-17.14-33.76-.57-1-1.15-2.3-.58-3.32a3.59,3.59,0,0,1,1.32-1.15l.5-.3.89.76-.45.25c.08.15.13.29.21.42,3,5.07,5.62,10.32,8.15,15.63,1.85,3.87,3.88,7.65,5.79,11.48,1.21,2.42,2.37,4.87,3.54,7.31a12,12,0,0,1,.58,1.39,2.68,2.68,0,0,1-.13,2.47c.29-.08.47-.12.63-.18,2.33-.91,4.66-1.8,7-2.74a51.16,51.16,0,0,1,8.43-2.56,1,1,0,0,0,.94.17Z"/><path d="M180.78,62a20.49,20.49,0,0,0-4.63,1.74l-.14-.29,1.22-.59c2.17-1.06,4.26-2.26,6.4-3.38.83-.43,1.69-.79,2.53-1.19h.42c.35.16.7.32.74.78s-.27.68-.59.91c-.95.66-1.89,1.34-2.83,2A5.63,5.63,0,0,0,180.78,62Z"/><path d="M187.77,112.07c-1.5.73-3.05,1.32-4.58,2-1.71.73-3.4,1.5-5.11,2.23-3.5,1.48-7,2.93-10.51,4.39a3.29,3.29,0,0,1-1.11.23,1.47,1.47,0,0,1-1.55-1.63,1.12,1.12,0,0,0-.29-.82,5.18,5.18,0,0,1-.73-1.47,57.42,57.42,0,0,0-3.79-10.32c-.72-1.52-1.5-3-2.31-4.52-1.79-3.3-3.61-6.57-5.33-9.9-.88-1.71-1.55-3.52-2.34-5.28-.7-1.54-1.42-3.08-2.14-4.64l-1.07,0,.78-.38c-.6-1.15-1.12-2.29-1.78-3.34-.78-1.25-.52-2.24.86-2.75,1.76-.64,3.5-1.36,5.29-1.89a95.57,95.57,0,0,0,15-6.22c3-1.46,6-2.82,9-4.27l.14.29c-4.53,2.26-9.25,5.92-13.08,8.31l-.5.3a3.59,3.59,0,0,0-1.32,1.15c-.57,1,0,2.29.58,3.32,6.23,11,13.45,21.66,17.14,33.76.32,1.07.82,2.33,1.91,2.53a3,3,0,0,0,1.62-.31l16.12-6.35a1,1,0,0,1-.94-.17c.7-.16,1.38-.24,1.52.29.25.94-1.46,1.66-3,2.11A54.56,54.56,0,0,0,187.77,112.07ZM152.49,85.54c.88,1.65,1.61,3.39,2.52,5,2,3.57,4.12,7.07,6.11,10.65a65.91,65.91,0,0,1,6.35,15c.08.26.14.53.22.83l4.51-1.74c-.5-1.81-.9-3.64-1.53-5.39-1.35-3.79-2.79-7.55-4.26-11.3s-2.9-7.5-4.51-11.18-3.55-7.55-5.38-11.4l-7.78,2.89.24.41C150.15,81.37,151.35,83.44,152.49,85.54Z"/><path d="M98.59,134.39a2.07,2.07,0,0,1-.51-.83c-.14-.34,0-.58.41-.56a7.48,7.48,0,0,1,1.5.15c1.44.39,2.86.83,4.29,1.24,1.16.33,2.3.72,3.47.93,6.1,1.06,5.31-3.84,5.15-4s-.57-.2-.86-.3c-.13,0-.27-.07-.4-.12-3.71-1.36-7.43-2.71-11.13-4.11a4.84,4.84,0,0,1-1.42-.93.92.92,0,0,1-.23-1.1.94.94,0,0,1,1-.58,5.38,5.38,0,0,1,1.39.13c2.09.62,4.18,1.28,6.26,1.94,1.74.55,3.46,1.12,5.19,1.69a2,2,0,0,0,1.91-.31c.91-.64,1.92-1.14,2.79-1.82a31,31,0,0,0,2.7-2.43,1.75,1.75,0,0,0,.33-2.11,7,7,0,0,0-2.92-3.46,27.18,27.18,0,0,0-7.45-3,41.9,41.9,0,0,1-4.48-1.35c-1.29-.45-1.35-1.33-1.18-1.88a1.47,1.47,0,0,1,1.83-1c1.25.26,2.47.67,3.7,1,1.9.55,3.77,1.18,5.69,1.64a8.74,8.74,0,0,0,4.54-.07c.76-.23.92-.6.49-1.26a20.28,20.28,0,0,0-4-4.71,27.76,27.76,0,0,0-6.79-3.69A27.71,27.71,0,0,1,103,99.67a16.22,16.22,0,0,0-1.84,1.87,13.2,13.2,0,0,1-3.08,3.07c-2.09,1.52-4.13,3.11-6.22,4.62-2.52,1.81-5.19,3-8.36,1.81l-.05,0A5.28,5.28,0,0,1,79.34,106a7.54,7.54,0,0,1,.6-3.2A25.5,25.5,0,0,1,82,98.31a59,59,0,0,1,3.66-4.72c.28-.36.62-.68,1-1A13.31,13.31,0,0,0,83,91.09,6.23,6.23,0,0,0,81.76,91c-3.07.1-5.89,1.75-8.36,3.69-.44.34-.85.71-1.3,1a5.94,5.94,0,0,1-2.95,1.47,7.34,7.34,0,0,1-3.92-.58c-1-.51-1.86-1.15-2.83-1.67-1.62-.88-3.32-1.69-4.87-2.68a30.15,30.15,0,0,0-4-2.13,4.3,4.3,0,0,0-1-.42c-.92-.14-1.78,2.78-2.12,3.46q-1.29,2.63-2.7,5.2c-1.41,2.59-2.92,5.14-4.5,7.64-.49.76-1.41,1.6-.23,2.41a10.49,10.49,0,0,0,2.62,1,9.49,9.49,0,0,1,2.13.7,21.65,21.65,0,0,1,6.57,4.94c1.17,1.18,2.32,2.39,3.43,3.62.9,1,1.74,2.34,2.94,2.94,1.48-1.49,2.89-3,4.49-4.41,4.86-4.15,7-.63,6.73,1.65a9.17,9.17,0,0,0-.22,2,17.24,17.24,0,0,1,1.89-1.26c1-.52,2.13-.92,3.18-1.42a4.33,4.33,0,0,1,3.86,0,2.41,2.41,0,0,1,1.54,2.06c.06.6,0,1.21,0,1.86l.42-.14a12.13,12.13,0,0,1,1.59-.66c1.73-.49,3.32-.32,4.45,1.28.42.59.72,1.25,1.09,1.88a5.66,5.66,0,0,1,.59,3.87,1.15,1.15,0,0,0,0,.21,15.38,15.38,0,0,1,1.73-.21,14.9,14.9,0,0,1,1.76.14,2.35,2.35,0,0,1,2.2,2,17.45,17.45,0,0,1,.47,2.35,11.49,11.49,0,0,1-.35,5.9c-.31.75-.53,1.54-.79,2.32l.11.08,5,2.51a.72.72,0,0,0,.86-.14c.59-.47,1.23-.89,1.81-1.39a19.11,19.11,0,0,0,2.21-2.1,12.72,12.72,0,0,0,1.18-2.19l-.36-.14c-2-.8-4.07-1.57-6.09-2.4A5.23,5.23,0,0,1,98.59,134.39Zm-6.28,5.54a17.92,17.92,0,0,0,1.52-6.66,7.58,7.58,0,0,0-.09-1.3c-.37-1.51-.23-1.38-1.68-1.53-.22,0-.45,0-.67,0A2.32,2.32,0,0,0,89,132.2c-.72,2.13-1.6,4.21-2.43,6.31a8.13,8.13,0,0,1-.67,1.23,5.27,5.27,0,0,1-2.13,2.08.52.52,0,0,0-.19.41,3.37,3.37,0,0,0,1.28,2.39,1.69,1.69,0,0,0,1.91.48,5.47,5.47,0,0,0,2.42-1.34A12.82,12.82,0,0,0,92.31,139.93Zm-78.91-74c.28-1.29,2-1.34,2.85-.76,1.75,1.19,13.54,6.31,15.27,7.52a41.51,41.51,0,0,0,6.26,3c2.18,1,4.31,2.17,6.48,3.22,1.62.78,3.27,1.51,4.92,2.23s3.12,1.27,4.67,1.91a1.19,1.19,0,0,1,.76,1.14,3.44,3.44,0,0,1-.55,2.12c-.24.37-.5.71-.76,1.1,1.68.89,3.34,1.67,5.11,2.41,3,1.26,5.72,3.08,8.69,4.4A2.75,2.75,0,0,0,70,94.1c1.09-.67,2.12-1.43,3.23-2.07a27.66,27.66,0,0,1,7.64-3.2A13.52,13.52,0,0,1,89,90a.29.29,0,0,0,.2,0,.36.36,0,0,0,.14-.1,20.17,20.17,0,0,1,4.49-3.57,13.79,13.79,0,0,1,5.72-2.35,25.2,25.2,0,0,1,3.88-.25c3.48.14,7,.2,10.35,1.26a39.13,39.13,0,0,0,4.15,1c2.28.44,4.56.9,6.86,1.21a20.43,20.43,0,0,0,6.48-.11c1.79-.32,3.61-.51,5.37-1a23.12,23.12,0,0,0,6.8-2.81,8.34,8.34,0,0,1,1.28-.69,2.14,2.14,0,0,1,1.1-.21,1.88,1.88,0,0,0,1.06-.17l1.07,0c-.14.09-.19.11-.21.15A10.71,10.71,0,0,1,141.5,88a38.43,38.43,0,0,1-9.27,2.67,14.08,14.08,0,0,1-1.71.14,44.5,44.5,0,0,1-8-.36c-2.46-.42-4.9-1-7.33-1.52-2.22-.49-4.4-1.18-6.63-1.54a58.25,58.25,0,0,0-6.31-.58,9.5,9.5,0,0,0-5.27.91,22.73,22.73,0,0,0-3.42,2.13A16.68,16.68,0,0,0,91,92.32c-1.89,2.11-3.67,4.33-5.36,6.6l-.15,1a1.67,1.67,0,0,0-1.09.44,4.39,4.39,0,0,0-.92,1.49,10.75,10.75,0,0,0-1.15,4.85c0,.63,1,1.48,1.75,1.58a7.16,7.16,0,0,0,3.75-.37,29.52,29.52,0,0,0,11-8.07c.53-.64,1.08-1.27,1.63-1.9a12,12,0,0,1,1.64-1.62,2.77,2.77,0,0,1,1.71-.66,3.59,3.59,0,0,1,2.37,1.59,2.28,2.28,0,0,1,.5.76.8.8,0,0,1-.17.84c-.11.11-.28.18-.33.32s3,1.41,3.39,1.59c2.46,1.13,4.93,2.23,7.34,3.45a1.25,1.25,0,0,0,1.58-.09c.7-.53,1.48-1,2.23-1.44a3.6,3.6,0,0,1,.66-.3.65.65,0,0,1,.88.2c.21.32.05.6-.19.83-.9.85-1.82,1.7-2.78,2.58.38.45.87,1,1.29,1.52.73,1,1.45,2,2.14,3a4.16,4.16,0,0,1,.64,2.53,2.05,2.05,0,0,1-1.08,1.9,25.06,25.06,0,0,1-2.41.94,1.28,1.28,0,0,1-.34.07c.73.67,1.49,1.31,2.19,2a7.23,7.23,0,0,1,1.89,3.6,4,4,0,0,1-.62,3.13,12.07,12.07,0,0,1-4.14,4c-1.06.64-2.11,1.31-3.18,2a2.25,2.25,0,0,0,1.5,1.31c1,.2,2,.55,3,.69a6,6,0,0,0,5-1.81c3.32-3.13,6.86-6,10-9.32a59.19,59.19,0,0,1,8.9-7.09,68.5,68.5,0,0,1,12.23-7,16.27,16.27,0,0,1,2.59-.72c.14,0,.31.06.46.1,0,.07-.08.16-.13.23a.75.75,0,0,1-.15.2.91.91,0,0,1-.46.23,12.45,12.45,0,0,0-3.89,1.94,107.74,107.74,0,0,0-10.71,7.39A55.52,55.52,0,0,0,136,124.5c-1.4,1.62-3,3.06-4.54,4.57-1.32,1.29-2.66,2.55-4,3.83a8.62,8.62,0,0,1-7.07,2.77,26.64,26.64,0,0,1-3.06-.59,8.37,8.37,0,0,1-1.52-.55.47.47,0,0,0-.63.14,8.2,8.2,0,0,0-.58.74,5.53,5.53,0,0,1-5.29,2.77c-.33,0-.66,0-1,0-.06.47-.1.93-.17,1.38a7,7,0,0,1-2.56,4.17c-.91.8-1.88,1.54-2.85,2.27a2.76,2.76,0,0,1-2.81.42c-1.44-.58-2.84-1.29-4.24-2-.66-.31-1.3-.65-2-1-.31.61-.61,1.16-.88,1.74a6,6,0,0,1-4.09,3.69,4.48,4.48,0,0,1-3.24-.4,25.22,25.22,0,0,1-3.4-2.28,3.23,3.23,0,0,1-.9-2.83c0-.16,0-.33.05-.58l-.88.57a3.83,3.83,0,0,1-4.87-.75c-.12-.13-2.45-2.46-2.58-4.05,0-.17,0-.34-.07-.6a5.15,5.15,0,0,1-5.51.3c-2-1.14-2-3.09-1.79-5.21-1,0-1.89.15-2.81.1a4.26,4.26,0,0,1-1.88-.44,7.61,7.61,0,0,1-3-3.54,3.28,3.28,0,0,1,.13-2.92c.23-.58.52-1.14.78-1.71-1.18-1.27-2.37-2.54-3.55-3.83-.43-.47-.84-1-1.27-1.44-.94-1-1.85-2.12-2.84-3.11a45.08,45.08,0,0,0-7.35-5c-.93-.35-1.81-.8-2.77-1.23-.3.58-.63,1.22-1,1.85-.93,1.71-1.87,3.4-2.8,5.11-.57,1-1.14,2.06-1.69,3.1s-.94,1.94-1.45,2.88c-.29.53-.66,1-1,1.54a6.5,6.5,0,0,1,.56.74,1.36,1.36,0,0,1-1.26,2.12A3.22,3.22,0,0,1,31,127c-1.06-.52-2.11-1.07-3.11-1.67C22.44,122,17,118.71,11.53,115.45c-1.58-.94-3.23-1.76-4.83-2.66a11,11,0,0,1-3.19-2.48,3.6,3.6,0,0,0-.52-.43A1.56,1.56,0,0,1,2.47,108a1.44,1.44,0,0,1,.36-.48C4.07,110,7,111.37,9.82,112a5.28,5.28,0,0,0,4-.31l.09-.06.23.11c0-.1,0-.2,0-.3,1-.88,1.42-2.36,2-3.61,2.36-5,8.7-7.78,10.9-12.55a8.18,8.18,0,0,0,.69-2.38,33.19,33.19,0,0,0-.17-5.08,14,14,0,0,1,4.6-10.62,2.06,2.06,0,0,0,.73-1c.2-.82-.69-1.47-1.46-1.85-3.23-1.6-16.13-7.88-19-7.66a.88.88,0,0,1,.51-.51C13.16,66.13,13.38,66,13.4,65.93ZM35.51,90.44a22.9,22.9,0,0,1,.69,8.29,5.73,5.73,0,0,1-2.75,4.42,10.92,10.92,0,0,1-3.16,1.3,7.15,7.15,0,0,0-3.95,2.36,14,14,0,0,0-1.41,1.86c-1.53,2.54-2.39,5.21-1.45,8.19a1.1,1.1,0,0,0,.39.56q2.1,1.48,4.24,2.93c.77.52,1.59,1,2.42,1.52a1.59,1.59,0,0,0,.16-.24c1.52-3.23,3.11-6.43,4.55-9.7A127.86,127.86,0,0,1,46.31,91.14c.9-1.33,1.73-2.72,2.59-4.09.08-.13.14-.26.23-.42a106.35,106.35,0,0,0-9-6.16c-.19.23-.34.42-.51.59-1,1-2.09,2-3.15,3A3.82,3.82,0,0,0,35,87.67C35.21,88.59,35.32,89.52,35.51,90.44Zm51.72,37.27c.69-4-2.33-4-3.2-4a4.06,4.06,0,0,0-2.15.75,18.31,18.31,0,0,0-2,3.08c-.72,1.41-1.28,2.92-1.91,4.38-.52,1.23-1,2.47-1.57,3.69a6.16,6.16,0,0,0-.22,3.32.79.79,0,0,0,.79.76,7.93,7.93,0,0,0,1.69-.15,7.85,7.85,0,0,0,4.19-2.75,15.85,15.85,0,0,0,2-2.61,29,29,0,0,0,1.69-3.92A9.13,9.13,0,0,0,87.23,127.71Zm-10-.42c3.12-5.63,2-6.52,1.74-7a1.13,1.13,0,0,0-1.5-.44,16.26,16.26,0,0,0-5.81,3.93c-2.57,4.2-4.33,8.76-4,10.58A5.19,5.19,0,0,0,68.77,136a4.41,4.41,0,0,0,1.71.14,5,5,0,0,0,2.91-2c.89-1.42,1.66-2.91,2.47-4.38C76.32,129,76.7,128.09,77.22,127.29Zm-9.28-2.42c.89-2.31,3-6.37.58-7.16-1.4-.46-2.85,1.68-3.7,2.55s-1.7,2.15-2.57,3.2a11.62,11.62,0,0,0-2.17,4,.72.72,0,0,0,0,.5,2.86,2.86,0,0,0,2.4,1.93,15.35,15.35,0,0,0,1.66.06.82.82,0,0,0,.54-.22A16.15,16.15,0,0,0,67.94,124.87Z"/><path d="M13.94,111.59l-.09.06a5.28,5.28,0,0,1-4,.31c-2.78-.59-5.75-2-7-4.42a1.59,1.59,0,0,1,1.39-.32,5.88,5.88,0,0,1,1.21.45l4.08,1.84,4.19,2Z"/><path d="M23.86,97.91a5.2,5.2,0,0,0,3-2.8l.28.13c-2.2,4.77-8.54,7.52-10.9,12.55-.59,1.25-1,2.73-2,3.61,0-.74,0-1.45.13-2.16a26.6,26.6,0,0,1,.59-2.79A7.77,7.77,0,0,1,17,102.82,18.35,18.35,0,0,1,23.86,97.91Z"/><path d="M163.07,72.06c3.83-2.39,8.55-6,13.08-8.31A20.49,20.49,0,0,1,180.78,62a5.63,5.63,0,0,1,3.12,0c-.86.6-1.72,1.2-2.6,1.77-1.44.92-3,1.75-4.48,2.54-4.22,2.17-8.48,4.3-12.72,6.44l-.14.08Z"/><path d="M26.77,86.25A8.77,8.77,0,0,1,29,80.07c1.11-1.27,2.24-2.53,3.38-3.82L31.83,76C29,74.62,16.08,69.24,13.21,67.85a1.78,1.78,0,0,1-.51-.35.77.77,0,0,1-.19-.8c2.85-.22,15.75,6.06,19,7.66.77.38,1.66,1,1.46,1.85a2.06,2.06,0,0,1-.73,1,14,14,0,0,0-4.6,10.62,33.19,33.19,0,0,1,.17,5.08,8.18,8.18,0,0,1-.69,2.38l-.28-.13a5.5,5.5,0,0,0,.4-3.26A36.15,36.15,0,0,1,26.77,86.25Z"/><path class="cls-2" d="M86.8,145.1a1.69,1.69,0,0,1-1.91-.48,3.37,3.37,0,0,1-1.28-2.39.52.52,0,0,1,.19-.41,5.27,5.27,0,0,0,2.13-2.08,8.13,8.13,0,0,0,.67-1.23c.83-2.1,1.71-4.18,2.43-6.31a2.32,2.32,0,0,1,2.36-1.77c.22,0,.45,0,.67,0,1.45.15,1.31,0,1.68,1.53a7.58,7.58,0,0,1,.09,1.3,17.92,17.92,0,0,1-1.52,6.66,12.82,12.82,0,0,1-3.09,3.83A5.47,5.47,0,0,1,86.8,145.1Z"/><path class="cls-2" d="M84,123.71c.87,0,3.89,0,3.2,4a9.13,9.13,0,0,1-.66,2.55,29,29,0,0,1-1.69,3.92,15.85,15.85,0,0,1-2,2.61,7.85,7.85,0,0,1-4.19,2.75,7.93,7.93,0,0,1-1.69.15.79.79,0,0,1-.79-.76,6.16,6.16,0,0,1,.22-3.32c.56-1.22,1-2.46,1.57-3.69.63-1.46,1.19-3,1.91-4.38a18.31,18.31,0,0,1,2-3.08A4.06,4.06,0,0,1,84,123.71Z"/><path d="M85.67,98.92c.22-.29,1.33,0,1.59.12a2.48,2.48,0,0,1,1.14.8,2.92,2.92,0,0,1,.33,2.88,8.19,8.19,0,0,1-2.1,2.94,2,2,0,0,1-1.89.48c-.67-.17-.62-.5-.24-1,.53-.71,1.25-1.25,1.74-2a2.8,2.8,0,0,0,.49-2,1.42,1.42,0,0,0-.67-1,1,1,0,0,0-.54-.13Z"/><path class="cls-2" d="M79,120.29c.28.48,1.38,1.37-1.74,7-.52.8-.9,1.68-1.36,2.51-.81,1.47-1.58,3-2.47,4.38a5,5,0,0,1-2.91,2,4.41,4.41,0,0,1-1.71-.14,5.19,5.19,0,0,1-1.12-1.68c-.33-1.82,1.43-6.38,4-10.58a16.26,16.26,0,0,1,5.81-3.93A1.13,1.13,0,0,1,79,120.29Z"/><path class="cls-2" d="M68.52,117.71c2.44.79.31,4.85-.58,7.16a16.15,16.15,0,0,1-3.25,4.84.82.82,0,0,1-.54.22,15.35,15.35,0,0,1-1.66-.06,2.86,2.86,0,0,1-2.4-1.93.72.72,0,0,1,0-.5,11.62,11.62,0,0,1,2.17-4c.87-1,1.63-2.22,2.57-3.2S67.12,117.25,68.52,117.71Z"/></g></svg>