<svg xmlns="http://www.w3.org/2000/svg" viewBox="0 0 200 200"><defs><style>.cls-1{isolation:isolate;}.cls-2{fill:#f6f2ef;}.cls-3{opacity:0.1;mix-blend-mode:multiply;}.cls-4{fill:#fff;}</style></defs><title>Artboard 1</title><g class="cls-1"><g id="social"><circle class="cls-2" cx="100.12" cy="100.12" r="90"/><path class="cls-3" d="M144.88,141.64l22.07.5s-.3-13.87-.08-20.81a96,96,0,0,0-15.46-3c-12.27-1.1-24.38,3.22-36.68,3.82-3.36.16-19.53,19.81-19.53,19.81s21.8.24,23.77.21Z"/><path class="cls-3" d="M69.11,76.31,69.5,88.4a.81.81,0,0,0,1.13.93l4.88-.68c1.38-11.72.94-23.58.5-35.38-.06-1.69-.44-4.12-2.41-4.58-1.56-.37-2.91,1.1-4.45,1.19C68.46,58.66,68.82,67.52,69.11,76.31Z"/><path d="M162.44,57.88c-.65-.06-1.66-.08-2.64-.26-.38-.08-.69-.52-1-.8.3-.25.6-.71.91-.71a43.78,43.78,0,0,1,4.72.15c.31,0,.57.62.85,1a5.12,5.12,0,0,1-1.14.63A7.66,7.66,0,0,1,162.44,57.88Z"/><path d="M158.05,91.83c.7-.77,1.35-1.57,2.1-2.28a3.23,3.23,0,0,1,1.13-.41c.08.4.32.86.19,1.18-.44,1.09-1,2.13-1.58,3.26.42.48.9,1,1.35,1.56a7.32,7.32,0,0,1,.82,1.18c.43.79.82,1.74,0,2.41s-1.7.16-2.37-.44-1.45-1.48-2.17-2.22a9.1,9.1,0,0,1-1.7,1.25,6.3,6.3,0,0,1-1.76.2,5.63,5.63,0,0,1,.28-1.72,10.32,10.32,0,0,1,1.29-1.65c-.75-1.81-3.26-2.78-2.42-5.54,1,.6,1.83,1,2.55,1.47S157.16,91.14,158.05,91.83Z"/><path d="M157.91,119.28c-.8-.75-1.56-1.41-2.77-.68-.23.15-.89-.08-1.12-.35s.07-.73.21-1.08a7.2,7.2,0,0,1,.6-1.07,26.06,26.06,0,0,1-2.15-3.14,8.74,8.74,0,0,1-.47-2.55,12.56,12.56,0,0,1,2.12,1c.93.67,1.75,1.5,2.88,2.5.89-1,1.73-2,2.65-3a3.42,3.42,0,0,1,1.11-.5c.17.41.58.91.46,1.22a15.85,15.85,0,0,1-1.39,2.72,12.7,12.7,0,0,1-1.21,1.51,11.79,11.79,0,0,1,1.17,2,1.81,1.81,0,0,1-.07,1.5c-.19.27-.9.2-1.39.2A1,1,0,0,1,157.91,119.28Z"/><path d="M154.81,76.74c1.43-1.7.94-3.26,0-5-.37-.71-.3-2.42,0-2.57,1-.44,1.38.8,1.93,1.46.35.42.68.86,1,1.29a27.54,27.54,0,0,1,2.1-1.91c.32-.22.85-.14,1.29-.2a3.81,3.81,0,0,1-.24,1.25c-.44.74-1,1.41-1.59,2.2.71.48,1.34.89,2,1.32a5.44,5.44,0,0,1,1.47,1.2,2.32,2.32,0,0,1,.36,1.77c-.13.32-1.18.58-1.64.41a39.88,39.88,0,0,1-3.8-1.92,11.66,11.66,0,0,1-1.45,1.69c-.3.26-.86.2-1.3.29C154.91,77.58,154.62,77,154.81,76.74Z"/><path d="M147.51,55.26a15.9,15.9,0,0,1,3.31.25,6.72,6.72,0,0,1,1.78,1c0,.16-.09.31-.13.46a12,12,0,0,1-5.24,0c-.35-.09-.56-.72-.84-1.1C146.76,55.64,147.14,55.26,147.51,55.26Z"/><path d="M134.56,89.78c.62.59,1.17,1.26,1.69,1.83a34.12,34.12,0,0,1,3.16-2.18c.41-.22,1.45-.14,1.53.07a2.47,2.47,0,0,1,0,1.85,14,14,0,0,1-1.72,2.22c.7.77,1.37,1.45,2,2.19s1.09,1.59.38,2.49-1.65.64-2.51.23-1.43-.85-2.13-1.27a5.87,5.87,0,0,1-1.22,1.14,2.07,2.07,0,0,1-1.54.21c-.33-.15-.42-.84-.6-1.3a.27.27,0,0,1,0-.23c1-1.68.3-3.09-.57-4.57a4,4,0,0,1-.32-2.18,1.49,1.49,0,0,1,.8-1.06C133.74,89.12,134.27,89.5,134.56,89.78Z"/><path d="M133.26,114.15c-.17-1-.48-1.92-.62-2.9,0-.31.25-.67.38-1a3.51,3.51,0,0,1,.91.45c.58.54,1.1,1.15,1.69,1.8a14.58,14.58,0,0,1,2-1.56,1.7,1.7,0,0,1,1.51,0,1.64,1.64,0,0,1,.09,1.48,19.41,19.41,0,0,1-1.51,2.37L140,117c.6.58,1.05,1.36.43,2a2.28,2.28,0,0,1-2,.49,19,19,0,0,1-3.13-1.89.38.38,0,0,1-.18.07c-.67.07-1.34.12-2,.18.06-.67.13-1.33.17-2A7.58,7.58,0,0,0,133.26,114.15Z"/><path d="M134,57.83c-.82-.33-.82-.92-.09-1.4a4.19,4.19,0,0,1,4.19.11c.23.17.5.57.45.8a1.12,1.12,0,0,1-.68.71,12.83,12.83,0,0,1-2,.2A10.28,10.28,0,0,1,134,57.83Z"/><path d="M135.17,75.31A16.39,16.39,0,0,1,133.11,77a4.63,4.63,0,0,1-1.66.25,4.48,4.48,0,0,1,.16-1.66,15.59,15.59,0,0,1,1.59-2,21.07,21.07,0,0,1-1.43-1.66,3.22,3.22,0,0,1-.61-1.38c-.09-.91.45-1.28,1.25-.84,1.05.56,2,1.23,3.11,1.89.85-.59,1.71-1.23,2.62-1.78a3.64,3.64,0,0,1,1.18-.23c0,.45.21,1,0,1.32a22.56,22.56,0,0,1-1.75,2.3c.69.61,1.37,1.22,2,1.84a9.05,9.05,0,0,1,.89,1c.57.74,1.23,1.6.46,2.44s-1.74.18-2.45-.34C137.37,77.21,136.31,76.25,135.17,75.31Z"/><path d="M125.87,57.17a3.45,3.45,0,0,1-1,.74,12.29,12.29,0,0,1-1.93.3,29,29,0,0,1-3-.57c-.35-.1-.58-.63-.87-1,.36-.23.71-.64,1.09-.67,1.25-.09,2.52-.07,3.78,0a2,2,0,0,1,1,.29A5.71,5.71,0,0,1,125.87,57.17Z"/><path d="M111.16,95.78a7.8,7.8,0,0,1-.51-2.66,1.66,1.66,0,0,1,.75-1.29c.29-.15.94.23,1.31.53A11.33,11.33,0,0,1,114,93.82c.75-.67,1.38-1.28,2.06-1.82a3.16,3.16,0,0,1,1.43-.82,1.87,1.87,0,0,1,1.54.45,1.75,1.75,0,0,1-.11,1.58,25.2,25.2,0,0,1-2.26,2.61,5,5,0,0,0,.5.59c.35.32.75.6,1.11.92,1.29,1.12,1.66,2.12,1.1,3s-1.89,1-3.37.25a7.48,7.48,0,0,1-1.12-.69,1.59,1.59,0,0,0-1.92-.31c-1,.47-1.86-.4-1.5-1.62A3,3,0,0,0,111.16,95.78Z"/><path d="M117.36,113.79a22,22,0,0,0,2,1.77,1.52,1.52,0,0,1,.62,1.88,1.29,1.29,0,0,1-1.78.77,15.08,15.08,0,0,1-2.85-1.65c-.5-.36-.84-.61-1.45-.23a1.93,1.93,0,0,1-1.24.28,1.43,1.43,0,0,1-.88-.66c-.09-.14.11-.6.3-.76,1-.79.89-1.59.33-2.64a7.89,7.89,0,0,1-.77-2.84c-.11-.91.48-1.13,1.22-.68a6.42,6.42,0,0,1,1.24,1.09c.48.52.91,1.09,1.38,1.67a9.55,9.55,0,0,1,1.89-1.16,1.75,1.75,0,0,1,1.47.22c.21.17.09,1-.12,1.36A10,10,0,0,1,117.36,113.79Z"/><path d="M117.73,76.22c.29,1.11-.55,1.9-1.58,1.42A27.75,27.75,0,0,1,113,75.58a11,11,0,0,1-1.72,1.53,1.83,1.83,0,0,1-1.52,0c-.22-.12-.26-1-.09-1.36A20.84,20.84,0,0,1,111,73.32a13.66,13.66,0,0,1-1.1-1.63,4.32,4.32,0,0,1-.48-1.8c0-1.09.67-1.42,1.59-.86a13.8,13.8,0,0,1,1.16.85l1.11.81c.68-.49,1.32-1,2-1.44s1.48-.66,2,.11,0,1.35-.54,1.85-1,.81-1.54,1.27c.58.71,1.06,1.18,1.42,1.73A7.55,7.55,0,0,1,117.73,76.22Z"/><path d="M108.54,58.33a1.36,1.36,0,0,1-.8-1,1.49,1.49,0,0,1,.81-1,7,7,0,0,1,1.67-.4c1.11.16,2.37,0,2.45,1.25s-1.17,1.25-2,1.36A4.94,4.94,0,0,1,108.54,58.33Z"/><path d="M95,56.69c1.35-.23,2.72-.35,4.08-.48a1.15,1.15,0,0,1,.79.23,15.44,15.44,0,0,1,1.24,1.31,4.52,4.52,0,0,1-1.28.9,30.58,30.58,0,0,1-3.1.56,11.12,11.12,0,0,1-2-.65,1.3,1.3,0,0,1-.55-1.05A1.2,1.2,0,0,1,95,56.69Z"/><path d="M95.73,111.87a12.84,12.84,0,0,1-1,1.78l3.35,3.6c-1.53,1-2.94.58-5.35-1.57a12.08,12.08,0,0,1-1.59.94,1.06,1.06,0,0,1-1-.09,1,1,0,0,1-.09-1,3.93,3.93,0,0,0,.68-4.22c-.12-.36.32-.89.51-1.34a6.89,6.89,0,0,1,1.3.56,6.59,6.59,0,0,1,.93,1,9.65,9.65,0,0,1,1.13-.62c.27-.1.73-.17.86,0A1.1,1.1,0,0,1,95.73,111.87Z"/><path d="M93.16,92.24A21.53,21.53,0,0,1,95,90.84a4.17,4.17,0,0,1,1.25-.31c.08.48.35,1,.19,1.41a19.13,19.13,0,0,1-1.52,2.53A12,12,0,0,1,96.68,96c.3.4.55,1.28.34,1.52a2.07,2.07,0,0,1-1.63.55,4.41,4.41,0,0,1-1.86-1,2,2,0,0,0-1.79-.57c-1.27.23-1.56-.26-1.16-1.48a2.87,2.87,0,0,0-.1-1.5c-.2-.76-.6-1.47-.77-2.24a1.51,1.51,0,0,1,.36-1.15c.13-.14.76,0,1,.25C91.8,90.93,92.41,91.56,93.16,92.24Z"/><path d="M93.48,71.34a27.79,27.79,0,0,1,2.06,2.47,1.71,1.71,0,0,1,.21,1.51,1.68,1.68,0,0,1-1.48.31,8.55,8.55,0,0,1-2.33-1.14c-.62-.43-1.11-.73-1.75-.08a1.23,1.23,0,0,1-.76.31c-.41,0-1,0-1.18-.23a1.5,1.5,0,0,1,0-1.19A7.1,7.1,0,0,1,88.91,72c-.5-1-1.77-1.94-.72-2.93.46-.44,1.82.08,2.77.17.08.19.15.39.23.59a18.28,18.28,0,0,1,2-2.24A4.62,4.62,0,0,1,94.81,67a4.92,4.92,0,0,1,.07,1.86A16.12,16.12,0,0,1,93.48,71.34Z"/><path d="M90.24,57.78A7.49,7.49,0,0,1,84.48,59a1.29,1.29,0,0,1-.78-.91A1.37,1.37,0,0,1,84.24,57C85.44,56.21,89,56.64,90.24,57.78Z"/><path class="cls-4" d="M159.67,56.11c-.31,0-.61.46-.91.71.35.28.66.72,1,.8,1,.18,2,.2,2.64.26a7.66,7.66,0,0,0,1.66,0,5.12,5.12,0,0,0,1.14-.63c-.28-.34-.54-.93-.85-1A43.78,43.78,0,0,0,159.67,56.11ZM114.83,99.85a7.48,7.48,0,0,0,1.12.69c1.48.76,2.76.66,3.37-.25s.19-1.84-1.1-3c-.36-.32-.76-.6-1.11-.92a5,5,0,0,1-.5-.59,25.2,25.2,0,0,0,2.26-2.61,1.75,1.75,0,0,0,.11-1.58,1.87,1.87,0,0,0-1.54-.45A3.16,3.16,0,0,0,116,92c-.68.54-1.31,1.15-2.06,1.82a11.33,11.33,0,0,0-1.24-1.46c-.37-.3-1-.68-1.31-.53a1.66,1.66,0,0,0-.75,1.29,7.8,7.8,0,0,0,.51,2.66,3,3,0,0,1,.25,2.14c-.36,1.22.47,2.09,1.5,1.62A1.59,1.59,0,0,1,114.83,99.85ZM90.19,74.41c.64-.65,1.13-.35,1.75.08a8.55,8.55,0,0,0,2.33,1.14,1.68,1.68,0,0,0,1.48-.31,1.71,1.71,0,0,0-.21-1.51,27.79,27.79,0,0,0-2.06-2.47,16.12,16.12,0,0,0,1.4-2.45A4.92,4.92,0,0,0,94.81,67a4.62,4.62,0,0,0-1.66.51,18.28,18.28,0,0,0-2,2.24c-.08-.2-.15-.4-.23-.59-.95-.09-2.31-.61-2.77-.17-1,1,.22,2,.72,2.93a7.1,7.1,0,0,0-.71,1.35,1.5,1.5,0,0,0,0,1.19c.21.24.77.23,1.18.23A1.23,1.23,0,0,0,90.19,74.41Zm-6-17.4a1.37,1.37,0,0,0-.54,1.06,1.29,1.29,0,0,0,.78.91,7.49,7.49,0,0,0,5.76-1.2C89,56.64,85.44,56.21,84.24,57Zm28.43.14c-.08-1.23-1.34-1.09-2.45-1.25a7,7,0,0,0-1.67.4,1.49,1.49,0,0,0-.81,1,1.36,1.36,0,0,0,.8,1,4.94,4.94,0,0,0,2.09.18C111.5,58.4,112.74,58.31,112.67,57.15ZM90.48,93.55a2.87,2.87,0,0,1,.1,1.5c-.4,1.22-.11,1.71,1.16,1.48a2,2,0,0,1,1.79.57,4.41,4.41,0,0,0,1.86,1A2.07,2.07,0,0,0,97,97.56c.21-.24,0-1.12-.34-1.52a12,12,0,0,0-1.77-1.57,19.13,19.13,0,0,0,1.52-2.53c.16-.38-.11-.93-.19-1.41a4.17,4.17,0,0,0-1.25.31,21.53,21.53,0,0,0-1.83,1.4c-.75-.68-1.36-1.31-2-1.83-.28-.21-.91-.39-1-.25a1.51,1.51,0,0,0-.36,1.15C89.88,92.08,90.28,92.79,90.48,93.55Zm55.91-37.7c.28.38.49,1,.84,1.1a12,12,0,0,0,5.24,0c0-.15.09-.3.13-.46a6.72,6.72,0,0,0-1.78-1,15.9,15.9,0,0,0-3.31-.25C147.14,55.26,146.76,55.64,146.39,55.85Zm-12.48.58c-.73.48-.73,1.07.09,1.4a10.28,10.28,0,0,0,1.85.42,12.83,12.83,0,0,0,2-.2,1.12,1.12,0,0,0,.68-.71c0-.23-.22-.63-.45-.8A4.19,4.19,0,0,0,133.91,56.43Zm-9,1.48a3.45,3.45,0,0,0,1-.74,5.71,5.71,0,0,0-.84-.92,2,2,0,0,0-1-.29c-1.26,0-2.53-.05-3.78,0-.38,0-.73.44-1.09.67.29.34.52.87.87,1a29,29,0,0,0,3,.57A12.29,12.29,0,0,0,124.92,57.91ZM99.56,44.25l49.93-.78c.09.91.16,1.77.28,2.63a6.69,6.69,0,0,0,.33,1.39,2.77,2.77,0,0,0,5.47-.34c.22-1.16.23-2.37.35-3.77l16.73-.55v12c-1.65.22-3.21.38-4.76.65-.35.06-.63.49-.95.75a4,4,0,0,0,1.1.67,22.75,22.75,0,0,0,3.17.42,5.3,5.3,0,0,0,1.38-.31c-.8,24.18-1.6,48.32-2.4,72.57H169l-69.95,0c-4.2,0-8.4.08-12.6,0a42.53,42.53,0,0,1-5-.69,15.89,15.89,0,0,0-1.59,0c0-2.43,0-4.78,0-7.13-.11-12.88-.27-25.75-.31-38.63,0-3.83.34-7.65.45-11.48s.13-7.92.21-11.88a2.28,2.28,0,0,1,.41-1.1,7,7,0,0,1,.86-.94c-.36-.24-.73-.47-1-.67V44.54H92.65c0,.71,0,1.45,0,2.18a3.25,3.25,0,0,0,1.87,3.55,3.43,3.43,0,0,0,4-1.12A5.79,5.79,0,0,0,99.56,44.25Zm63.61,33.29a2.32,2.32,0,0,0-.36-1.77,5.44,5.44,0,0,0-1.47-1.2c-.61-.43-1.24-.84-2-1.32.58-.79,1.15-1.46,1.59-2.2a3.81,3.81,0,0,0,.24-1.25c-.44.06-1,0-1.29.2a27.54,27.54,0,0,0-2.1,1.91c-.35-.43-.68-.87-1-1.29-.55-.66-.91-1.9-1.93-1.46-.34.15-.41,1.86,0,2.57.92,1.75,1.41,3.31,0,5-.19.22.1.84.17,1.27.44-.09,1,0,1.3-.29A11.66,11.66,0,0,0,157.73,76a39.88,39.88,0,0,0,3.8,1.92C162,78.12,163,77.86,163.17,77.54Zm-1.11,21.19c.82-.67.43-1.62,0-2.41a7.32,7.32,0,0,0-.82-1.18c-.45-.55-.93-1.08-1.35-1.56.56-1.13,1.14-2.17,1.58-3.26.13-.32-.11-.78-.19-1.18a3.23,3.23,0,0,0-1.13.41c-.75.71-1.4,1.51-2.1,2.28-.89-.69-1.56-1.26-2.29-1.75s-1.5-.87-2.55-1.47c-.84,2.76,1.67,3.73,2.42,5.54a10.32,10.32,0,0,0-1.29,1.65,5.63,5.63,0,0,0-.28,1.72,6.3,6.3,0,0,0,1.76-.2,9.1,9.1,0,0,0,1.7-1.25c.72.74,1.4,1.52,2.17,2.22S161.26,99.38,162.06,98.73Zm-.63,13c.12-.31-.29-.81-.46-1.22a3.42,3.42,0,0,0-1.11.5c-.92,1-1.76,2-2.65,3-1.13-1-2-1.83-2.88-2.5a12.56,12.56,0,0,0-2.12-1,8.74,8.74,0,0,0,.47,2.55,26.06,26.06,0,0,0,2.15,3.14,7.2,7.2,0,0,0-.6,1.07c-.14.35-.36.9-.21,1.08s.89.5,1.12.35c1.21-.73,2-.07,2.77.68a1,1,0,0,0,.63.3c.49,0,1.2.07,1.39-.2a1.81,1.81,0,0,0,.07-1.5,11.79,11.79,0,0,0-1.17-2,12.7,12.7,0,0,0,1.21-1.51A15.85,15.85,0,0,0,161.43,111.69ZM141.57,98.25c.71-.9.22-1.75-.38-2.49s-1.26-1.42-2-2.19A14,14,0,0,0,141,91.35a2.47,2.47,0,0,0,0-1.85c-.08-.21-1.12-.29-1.53-.07a34.12,34.12,0,0,0-3.16,2.18c-.52-.57-1.07-1.24-1.69-1.83-.29-.28-.82-.66-1.07-.56a1.49,1.49,0,0,0-.8,1.06,4,4,0,0,0,.32,2.18c.87,1.48,1.58,2.89.57,4.57a.27.27,0,0,0,0,.23c.18.46.27,1.15.6,1.3a2.07,2.07,0,0,0,1.54-.21,5.87,5.87,0,0,0,1.22-1.14c.7.42,1.39.9,2.13,1.27S140.87,99.13,141.57,98.25ZM141,78.39c.77-.84.11-1.7-.46-2.44a9.05,9.05,0,0,0-.89-1c-.67-.62-1.35-1.23-2-1.84a22.56,22.56,0,0,0,1.75-2.3c.19-.32,0-.87,0-1.32a3.64,3.64,0,0,0-1.18.23c-.91.55-1.77,1.19-2.62,1.78-1.07-.66-2.06-1.33-3.11-1.89-.8-.44-1.34-.07-1.25.84a3.22,3.22,0,0,0,.61,1.38,21.07,21.07,0,0,0,1.43,1.66,15.59,15.59,0,0,0-1.59,2,4.48,4.48,0,0,0-.16,1.66,4.63,4.63,0,0,0,1.66-.25,16.39,16.39,0,0,0,2.06-1.67c1.14.94,2.2,1.9,3.36,2.74C139.24,78.57,140.17,79.29,141,78.39Zm-.58,40.55c.62-.62.17-1.4-.43-2l-2.22-2.18a19.41,19.41,0,0,0,1.51-2.37,1.64,1.64,0,0,0-.09-1.48,1.7,1.7,0,0,0-1.51,0,14.58,14.58,0,0,0-2,1.56c-.59-.65-1.11-1.26-1.69-1.8a3.51,3.51,0,0,0-.91-.45c-.13.35-.43.71-.38,1,.14,1,.45,1.93.62,2.9a7.58,7.58,0,0,1,0,1.65c0,.66-.11,1.32-.17,2,.67-.06,1.34-.11,2-.18a.38.38,0,0,0,.18-.07,19,19,0,0,0,3.13,1.89A2.28,2.28,0,0,0,140.4,118.94ZM120,117.44a1.52,1.52,0,0,0-.62-1.88,22,22,0,0,1-2-1.77,10,10,0,0,0,1.34-1.58c.21-.39.33-1.19.12-1.36a1.75,1.75,0,0,0-1.47-.22,9.55,9.55,0,0,0-1.89,1.16c-.47-.58-.9-1.15-1.38-1.67a6.42,6.42,0,0,0-1.24-1.09c-.74-.45-1.33-.23-1.22.68a7.89,7.89,0,0,0,.77,2.84c.56,1,.69,1.85-.33,2.64-.19.16-.39.62-.3.76a1.43,1.43,0,0,0,.88.66,1.93,1.93,0,0,0,1.24-.28c.61-.38,1-.13,1.45.23a15.08,15.08,0,0,0,2.85,1.65A1.29,1.29,0,0,0,120,117.44Zm-3.81-39.8c1,.48,1.87-.31,1.58-1.42a7.55,7.55,0,0,0-1-2c-.36-.55-.84-1-1.42-1.73.56-.46,1.07-.85,1.54-1.27s1.11-1.1.54-1.85-1.37-.51-2-.11-1.35,1-2,1.44l-1.11-.81A13.8,13.8,0,0,0,111,69c-.92-.56-1.59-.23-1.59.86a4.32,4.32,0,0,0,.48,1.8,13.66,13.66,0,0,0,1.1,1.63,20.84,20.84,0,0,0-1.36,2.46c-.17.4-.13,1.24.09,1.36a1.83,1.83,0,0,0,1.52,0A11,11,0,0,0,113,75.58,27.75,27.75,0,0,0,116.15,77.64Zm-15-19.89a15.44,15.44,0,0,0-1.24-1.31,1.15,1.15,0,0,0-.79-.23c-1.36.13-2.73.25-4.08.48a1.2,1.2,0,0,0-.8.82,1.3,1.3,0,0,0,.55,1.05,11.12,11.12,0,0,0,2,.65,30.58,30.58,0,0,0,3.1-.56A4.52,4.52,0,0,0,101.14,57.75Zm-8.41,57.93c2.41,2.15,3.82,2.56,5.35,1.57l-3.35-3.6a12.84,12.84,0,0,0,1-1.78,1.1,1.1,0,0,0-.23-.94c-.13-.13-.59-.06-.86,0a9.65,9.65,0,0,0-1.13.62,6.59,6.59,0,0,0-.93-1,6.89,6.89,0,0,0-1.3-.56c-.19.45-.63,1-.51,1.34a3.93,3.93,0,0,1-.68,4.22,1,1,0,0,0,.09,1,1.06,1.06,0,0,0,1,.09A12.08,12.08,0,0,0,92.73,115.68Z"/><path class="cls-4" d="M134.07,136.69c-10.92,0-47.65.07-58.75.1.27-.3.53-.62.78-.94l4.8.34c.64,0,.64-1,0-1l-4.07-.28A20,20,0,0,0,78,133.05a2.85,2.85,0,0,0,.59,0c1.71-.13,3.42-.29,5.14-.31q17.44-.24,34.91-.43l49.67-.45a8.75,8.75,0,0,1,.88.09l.17.39c-.7.4-1.39,1.15-2.09,1.16q-20.81.41-41.62.63c-6.24.07-12.48,0-18.72.07a6.55,6.55,0,0,0-1.41.33l.06.57c4,.56,8-.09,12,0s8.24,0,12.36,0h12.24c4.12,0,8.23.05,12.35.06h12.21c-.69,1.61-.74,1.65-1.72,1.64C154.71,136.8,144.39,136.7,134.07,136.69Z"/><path class="cls-4" d="M73.63,135.67q-.87-42.51-.33-85L74,49.9a156.36,156.36,0,0,1,.28,23.51c0,.65,1,.64,1,0a154.3,154.3,0,0,0-.37-24.51L76,47.64q0,4.26.12,8.52c.17,7.63.43,15.26.56,22.9.06,3.71-.12,7.43-.13,11.15q0,19.14,0,38.28a27.33,27.33,0,0,0,.1,2.86,20.12,20.12,0,0,1-1.26,2.1c-.16-3.51-.22-7-.14-10.53a.5.5,0,0,0-1,0c-.09,3.93,0,7.86.21,11.79C74.19,135,73.92,135.36,73.63,135.67Z"/><path d="M73.3,50.62q-.55,42.53.33,85c.29-.31.56-.63.83-1-.22-3.93-.3-7.86-.21-11.79a.5.5,0,0,1,1,0c-.08,3.51,0,7,.14,10.53a20.12,20.12,0,0,0,1.26-2.1,27.33,27.33,0,0,1-.1-2.86q0-19.14,0-38.28c0-3.72.19-7.44.13-11.15-.13-7.64-.39-15.27-.56-22.9Q76,51.9,76,47.64L74.86,48.9a154.3,154.3,0,0,1,.37,24.51c0,.64-1,.65-1,0A156.36,156.36,0,0,0,74,49.9Zm76.4,88.11q-22.12.21-44.26.36l-30.2,0c-.77,0-1.45-.18-1.53-1a.85.85,0,0,1-.23,0,1,1,0,0,1-1.81-.58q-.93-43.31-.38-86.62a1,1,0,0,1-.11-.73c.06-.2.11-.39.16-.59a.9.9,0,0,1,.87-.7L76,44.68v-.63a6.29,6.29,0,0,1,.62-2.54,1.85,1.85,0,0,1,3.17-.39,1.64,1.64,0,0,0,1,.6c3.71-.09,7.43-.26,11.14-.4.12,0,.24,0,.45-.09.12-1.32.2-2.67.39-4a9.63,9.63,0,0,1,.65-2.42A2.57,2.57,0,0,1,96,33.17a2.47,2.47,0,0,1,2.43,2c.33,1.43.44,2.91.63,4.38.06.47.09.94.15,1.64l50.15-1.3c0-.57,0-1.08,0-1.58a15.46,15.46,0,0,1,.35-2.72,2.74,2.74,0,0,1,2.68-2A2.69,2.69,0,0,1,155,35.6a14.3,14.3,0,0,1,.36,2.36c.07.55.11,1.09.17,1.67h19.28c.12,4,.4,7.94.35,11.92-.15,12.39-.44,24.79-.66,37.18q-.36,20-.67,40a4.79,4.79,0,0,1-.91,3.2c-1.41,1.78-2.59,3.73-3.94,5.57a7,7,0,0,1-1.65,1.55,1.22,1.22,0,0,1-1.88-.23,1.39,1.39,0,0,0-1-.35C159.53,138.5,154.62,138.68,149.7,138.73ZM169.19,132a8.75,8.75,0,0,0-.88-.09l-49.67.45q-17.46.18-34.91.43c-1.72,0-3.43.18-5.14.31a2.85,2.85,0,0,1-.59,0,20,20,0,0,1-1.17,1.86l4.07.28c.64,0,.64,1,0,1l-4.8-.34c-.25.32-.51.64-.78.94,11.1,0,47.83-.11,58.75-.1,10.32,0,20.64.11,31,.17,1,0,1,0,1.72-1.64H154.54c-4.12,0-8.23-.05-12.35-.06H130c-4.12,0-8.24.08-12.36,0s-8,.55-12,0l-.06-.57a6.55,6.55,0,0,1,1.41-.33c6.24,0,12.48,0,18.72-.07q20.81-.24,41.62-.63c.7,0,1.39-.76,2.09-1.16Zm-19.7-88.51-49.93.78a5.79,5.79,0,0,1-1.07,4.9,3.43,3.43,0,0,1-4,1.12,3.25,3.25,0,0,1-1.87-3.55c0-.73,0-1.47,0-2.18H80.43V57c.32.2.69.43,1,.67a7,7,0,0,0-.86.94,2.28,2.28,0,0,0-.41,1.1c-.08,4-.09,7.92-.21,11.88s-.46,7.65-.45,11.48c0,12.88.2,25.75.31,38.63,0,2.35,0,4.7,0,7.13a15.89,15.89,0,0,1,1.59,0,42.53,42.53,0,0,0,5,.69c4.2.1,8.4,0,12.6,0l70,0h1.23c.8-24.25,1.6-48.39,2.4-72.57a5.3,5.3,0,0,1-1.38.31,22.75,22.75,0,0,1-3.17-.42,4,4,0,0,1-1.1-.67c.32-.26.6-.69.95-.75,1.55-.27,3.11-.43,4.76-.65v-12l-16.73.55c-.12,1.4-.13,2.61-.35,3.77a2.77,2.77,0,0,1-5.47.34,6.69,6.69,0,0,1-.33-1.39C149.65,45.24,149.58,44.38,149.49,43.47Z"/><path class="cls-3" d="M120.6,85.17A37.37,37.37,0,0,1,126.48,110a44.39,44.39,0,0,1-10.34,23.5,97.42,97.42,0,0,1-8.74,8.74L82.27,165.36c-2,1.8-4,3.65-6.52,4.48a9.29,9.29,0,0,1-4.28.38c-1.87-2.06-1.1-5.44.39-7.79,3-4.76,7.72-8.14,12-11.74a109.61,109.61,0,0,0,29-37.72,47.83,47.83,0,0,0,4.14-12.32c.71-4.38.47-8.93,1.75-13.18C119.08,86.62,119.78,84.86,120.6,85.17Z"/><g id="fuXIsw.tif"><path d="M126.21,105.18c-.16.86-.37,1.72-.48,2.59A29.79,29.79,0,0,1,122,118.45a59.24,59.24,0,0,1-8.7,11.74c-2.54,2.74-5.09,5.47-7.69,8.15-3.71,3.85-7.43,7.69-11.22,11.45Q89.65,154.5,84.7,159c-3.89,3.54-7.89,7-11.84,10.43-.35.3-.76.53-1.13.79h-1.2c-.46-.42-.93-.83-1.38-1.26L44.53,144.81c-2-1.92-3.87-3.89-5.82-5.81-2.11-2.06-4.33-4-6.36-6.16-3.88-4.1-7.76-8.22-10.72-13.08a31.21,31.21,0,0,1-4.89-13.35A29.63,29.63,0,0,1,23,85.12,32,32,0,0,1,38.43,74a25.36,25.36,0,0,1,10-1.47A28.91,28.91,0,0,1,66,79.68c1.73,1.51,3.36,3.14,5.36,5a11.36,11.36,0,0,1,1-1.38A30.47,30.47,0,0,1,86.51,74.7a62.61,62.61,0,0,1,7.73-1.42,27.26,27.26,0,0,1,11.89,1.18A26.52,26.52,0,0,1,115,79a27.07,27.07,0,0,1,9.57,13.91,74.92,74.92,0,0,1,1.42,7.37,3.41,3.41,0,0,0,.24.6Zm-3.83-5.08c-.62-2.36-1.1-4.9-2-7.32A23.84,23.84,0,0,0,113,82.46c-4.89-4.07-10.62-5.44-16.74-5.56a28.21,28.21,0,0,0-5.38.69,27.66,27.66,0,0,0-14.84,7.58c-1.29,1.25-2.45,2.61-3.7,3.89a2,2,0,0,1-3-.19A34,34,0,0,0,62,81.45a25,25,0,0,0-15.51-5,23.34,23.34,0,0,0-6.1,1.12,27.12,27.12,0,0,0-14.34,10,25.62,25.62,0,0,0-5.53,17.76,26.71,26.71,0,0,0,4.14,12c2.79,4.67,6.48,8.64,10.2,12.56,2.6,2.74,5.42,5.3,8.13,7.94,1.13,1.11,2.22,2.25,3.35,3.35q8.92,8.69,17.86,17.35c1.86,1.82,3.67,3.69,5.51,5.53,1.49,1.49,1.48,1.48,3,.18.24-.2.54-.33.77-.54,4.07-3.66,8.18-7.28,12.19-11,3.3-3.07,6.49-6.26,9.69-9.44,1.22-1.2,2.32-2.51,3.51-3.74,3.84-4,7.79-7.95,11.53-12.07a86.79,86.79,0,0,0,6.31-8,25.59,25.59,0,0,0,4.88-11.07C122.07,105.73,122.15,103,122.38,100.1Z"/><path class="cls-4" d="M122.38,100.1c-.23,2.92-.31,5.63-.7,8.3a25.59,25.59,0,0,1-4.88,11.07,86.79,86.79,0,0,1-6.31,8c-3.74,4.12-7.69,8-11.53,12.07-1.19,1.23-2.29,2.54-3.51,3.74-3.2,3.18-6.39,6.37-9.69,9.44-4,3.73-8.12,7.35-12.19,11-.23.21-.53.34-.77.54-1.57,1.3-1.56,1.31-3-.18-1.84-1.84-3.65-3.71-5.51-5.53q-8.91-8.69-17.86-17.35c-1.13-1.1-2.22-2.24-3.35-3.35-2.71-2.64-5.53-5.2-8.13-7.94C31.18,126,27.49,122,24.7,117.32a26.71,26.71,0,0,1-4.14-12,25.62,25.62,0,0,1,5.53-17.76,27.12,27.12,0,0,1,14.34-10,23.34,23.34,0,0,1,6.1-1.12,25,25,0,0,1,15.51,5,34,34,0,0,1,7.3,7.42,2,2,0,0,0,3,.19c1.25-1.28,2.41-2.64,3.7-3.89a27.66,27.66,0,0,1,14.84-7.58,28.21,28.21,0,0,1,5.38-.69c6.12.12,11.85,1.49,16.74,5.56a23.84,23.84,0,0,1,7.41,10.32C121.28,95.2,121.76,97.74,122.38,100.1ZM64.93,115.57l.21,0c0,.34.06.68.07,1q.47,14.28,1,28.54a9.22,9.22,0,0,0,.21,1.9,2.58,2.58,0,0,0,2.49,2.19,2.64,2.64,0,0,0,2.59-2.1c.2-.73.26-1.5.45-2.23q2.46-9.94,5-19.87c.26-1,.25-2.46.93-3s2.11-.32,3.21-.42h.12l19.59-1.7a26.43,26.43,0,0,0,3.22-.36,2.36,2.36,0,0,0,2-2.5,2.41,2.41,0,0,0-2.26-2.25,5.83,5.83,0,0,0-1.32,0c-6.13.55-12.26,1.08-18.39,1.68-2.34.23-4.67.6-7,.94a2.77,2.77,0,0,0-2.55,2q-1.4,4.88-2.83,9.76c-.18.63-.4,1.26-.6,1.88a10.21,10.21,0,0,1-.38-2.53c-.44-7.1-.89-14.21-1.3-21.31a4.6,4.6,0,0,0-1.7-3.68,2.86,2.86,0,0,0-2.14-.51c-.56.17-1,1-1.31,1.64-.35.83-.43,1.78-.71,2.65-.9,2.81-1.86,5.6-2.74,8.42a1.14,1.14,0,0,1-1.32,1c-3.72,0-7.44,0-11.16,0-3.12.07-6.23.24-9.35.43-1.83.12-2.64.72-2.59,1.71s.85,1.46,2.58,1.61l.24,0c2,.11,3.91.3,5.87.32q7.86.1,15.72.07c2.23,0,2.83-.55,3.48-2.71C64.4,117.35,64.66,116.46,64.93,115.57Z"/><path d="M64.93,115.57c-.27.89-.53,1.78-.8,2.66-.65,2.16-1.25,2.7-3.48,2.71q-7.86,0-15.72-.07c-2,0-3.91-.21-5.87-.32l-.24,0c-1.73-.15-2.54-.65-2.58-1.61s.76-1.59,2.59-1.71c3.12-.19,6.23-.36,9.35-.43,3.72-.08,7.44-.08,11.16,0a1.14,1.14,0,0,0,1.32-1c.88-2.82,1.84-5.61,2.74-8.42.28-.87.36-1.82.71-2.65.28-.64.75-1.47,1.31-1.64a2.86,2.86,0,0,1,2.14.51,4.6,4.6,0,0,1,1.7,3.68c.41,7.1.86,14.21,1.3,21.31a10.21,10.21,0,0,0,.38,2.53c.2-.62.42-1.25.6-1.88q1.42-4.87,2.83-9.76a2.77,2.77,0,0,1,2.55-2c2.34-.34,4.67-.71,7-.94,6.13-.6,12.26-1.13,18.39-1.68a5.83,5.83,0,0,1,1.32,0,2.41,2.41,0,0,1,2.26,2.25,2.36,2.36,0,0,1-2,2.5,26.43,26.43,0,0,1-3.22.36l-19.59,1.7H81c-1.1.1-2.49-.15-3.21.42s-.67,2-.93,3q-2.49,9.93-5,19.87c-.19.73-.25,1.5-.45,2.23a2.64,2.64,0,0,1-2.59,2.1,2.58,2.58,0,0,1-2.49-2.19,9.22,9.22,0,0,1-.21-1.9q-.48-14.27-1-28.54c0-.33,0-.67-.07-1Z"/></g></g></g></svg>