<svg xmlns="http://www.w3.org/2000/svg" viewBox="0 0 200 200"><defs><style>.cls-1{isolation:isolate;}.cls-2{fill:#f6f2ef;}.cls-3{fill:#fff;}.cls-4{opacity:0.2;mix-blend-mode:multiply;}.cls-5{fill:#231f20;}</style></defs><title>toolbox_icon_icebreaker</title><g class="cls-1"><g id="social"><circle class="cls-2" cx="100.12" cy="100.12" r="90"/><ellipse class="cls-3" cx="98.56" cy="95.39" rx="49.66" ry="53.81"/><g id="azjuhR.tif"><g class="cls-4"><path class="cls-5" d="M146.33,143.85A67.69,67.69,0,0,1,145,124.06a9.77,9.77,0,0,1,1.69-5.49,1.47,1.47,0,0,1,1.74-.73c.77.3.82,1,.71,1.73-1.51,9.48.64,18.5,3.4,27.45a12,12,0,0,1,.37,2,2.36,2.36,0,0,1-3.92,2.3,43.68,43.68,0,0,1-11.39-10.5c-1.14-1.58-1.86-1.57-3.29-.31-10.88,9.59-23.65,13.65-38,11.75-16.19-2.15-28.7-10.57-37.8-24a56,56,0,0,1-9.36-39.72c2.7-20.08,12.73-35.44,32-43.21,16.56-6.69,32.29-3.78,46.67,6.49,9.94,7.09,16.34,16.86,20.2,28.32a40.64,40.64,0,0,1,2.19,13.71c0,.74.34,1.93-.82,2-.92,0-.87-1.05-1-1.77C146.07,80.8,140.8,69.09,130.68,60,121.15,51.34,110,46.9,97,47.12,77.32,47.47,60.84,62,55.54,80.38c-6.76,23.49,5,51.29,26.71,62.05A43.75,43.75,0,0,0,132.38,135a6.37,6.37,0,0,1,2.3-1.77c1.63-.55,2.9-.09,3.5,1.48C139.75,138.73,143.2,141.07,146.33,143.85Z"/><path class="cls-5" d="M85.61,106.37l4.69-4.18c3.55-3.2,6.62-2.36,8.19,2.17.9,2.58,1.07,5.29,1.58,7.93a11.18,11.18,0,0,0,2.89,6c1.52,1.55,3.08,1.62,4.82.35,2.8-2,4.28-5,5.44-8.1,1.07-2.87,1.91-5.83,2.75-8.78.41-1.41,1.12-2.3,2.67-2.17s2,1.26,2,2.56a31.66,31.66,0,0,0,1.34,8.19c1.06,3.74,3.58,6.33,6.39,8.77,1.12,1,1.55.26,2-.63.32-.69.56-1.58,1.52-1.32A2.08,2.08,0,0,1,133.2,119c.24,1.77.35,3.59-1.3,4.74a4.94,4.94,0,0,1-5.35,0,19.59,19.59,0,0,1-7.9-8.42c-.39-.72-.74-1.45-1.2-2.35-1.27,2.71-2.41,5.25-4.37,7.26-2.48,2.54-5.29,4.87-9.06,3.92s-6.11-4.14-7.46-7.83c-1.06-2.91-1-6-1.75-9-.18-.73-.16-1.63-1-1.88s-1.16.54-1.6,1a40,40,0,0,0-7.77,11.77c-.68,1.63-.24,3.42-1,5-.54,1.1-1.14,1.82-2.33,1.67a2.41,2.41,0,0,1-2.2-2.23,5.56,5.56,0,0,1,.27-2.45,45.47,45.47,0,0,0,2.14-12.36c.13-2.54.91-5,.84-7.6,0-1.2-.3-1.55-1.56-1.32a39.38,39.38,0,0,1-8.34.28,8.25,8.25,0,0,1-5.42-2.44,1.84,1.84,0,0,1-.46-2.62c.83-1,1.16.4,1.74.65,3.29,1.4,6.71,1.1,10,.35,5.3-1.22,5-1.44,5.72-6.87,1.57-11,4.64-21.67,10.86-31.13A15.33,15.33,0,0,1,97.51,54a6.14,6.14,0,0,1,9.94,3,15.1,15.1,0,0,1,.84,6c-.89,9.34-2.25,18.5-9.2,25.69a37.16,37.16,0,0,1-11,7.64,2.78,2.78,0,0,0-1.75,2.3A36,36,0,0,0,85.61,106.37Zm18.53-43.25c0-.88,0-1.86,0-2.83a9.73,9.73,0,0,0-.22-1.79c-.55-2.4-2.48-3.08-4.35-1.53a13.4,13.4,0,0,0-2.82,3.49A70.41,70.41,0,0,0,89,80.75c-.7,3-1.23,6-1.74,9-.21,1.25.15,2,1.6,1.12a28.39,28.39,0,0,0,9.58-8.72C102.19,76.41,103.54,69.94,104.14,63.12Z"/><path class="cls-5" d="M121.08,87.29a3.09,3.09,0,0,1-2.93,3.08c-1.56-.06-3.16-2-3.1-3.83a3.57,3.57,0,0,1,3.33-3C119.82,83.53,121.14,85.39,121.08,87.29Z"/></g><path d="M144.33,141.85A67.69,67.69,0,0,1,143,122.06a9.77,9.77,0,0,1,1.69-5.49,1.47,1.47,0,0,1,1.74-.73c.77.3.82,1,.71,1.73-1.51,9.48.64,18.5,3.4,27.45a12,12,0,0,1,.37,2,2.36,2.36,0,0,1-3.92,2.3,43.68,43.68,0,0,1-11.39-10.5c-1.14-1.58-1.86-1.57-3.29-.31-10.88,9.59-23.65,13.65-38,11.75-16.19-2.15-28.7-10.57-37.8-24a56,56,0,0,1-9.36-39.72c2.7-20.08,12.73-35.44,32-43.21,16.56-6.69,32.29-3.78,46.67,6.49,9.94,7.09,16.34,16.86,20.2,28.32a40.64,40.64,0,0,1,2.19,13.71c0,.74.34,1.93-.82,2-.92,0-.87-1.05-1-1.77C144.07,78.8,138.8,67.09,128.68,58,119.15,49.34,108,44.9,95,45.12,75.32,45.47,58.84,60,53.54,78.38c-6.76,23.49,5,51.29,26.71,62.05A43.75,43.75,0,0,0,130.38,133a6.37,6.37,0,0,1,2.3-1.77c1.63-.55,2.9-.09,3.5,1.48C137.75,136.73,141.2,139.07,144.33,141.85Z"/><path d="M83.61,104.37l4.69-4.18c3.55-3.2,6.62-2.36,8.19,2.17.9,2.58,1.07,5.29,1.58,7.93a11.18,11.18,0,0,0,2.89,6c1.52,1.55,3.08,1.62,4.82.35,2.8-2,4.28-5,5.44-8.1,1.07-2.87,1.91-5.83,2.75-8.78.41-1.41,1.12-2.3,2.67-2.17s2,1.26,2,2.56a31.66,31.66,0,0,0,1.34,8.19c1.06,3.74,3.58,6.33,6.39,8.77,1.12,1,1.55.26,2-.63.32-.69.56-1.58,1.52-1.32A2.08,2.08,0,0,1,131.2,117c.24,1.77.35,3.59-1.3,4.74a4.94,4.94,0,0,1-5.35,0,19.59,19.59,0,0,1-7.9-8.42c-.39-.72-.74-1.45-1.2-2.35-1.27,2.71-2.41,5.25-4.37,7.26-2.48,2.54-5.29,4.87-9.06,3.92s-6.11-4.14-7.46-7.83c-1.06-2.91-1-6-1.75-9-.18-.73-.16-1.63-1-1.88s-1.16.54-1.6,1a40,40,0,0,0-7.77,11.77c-.68,1.63-.24,3.42-1,5-.54,1.1-1.14,1.82-2.33,1.67a2.41,2.41,0,0,1-2.2-2.23,5.56,5.56,0,0,1,.27-2.45,45.47,45.47,0,0,0,2.14-12.36c.13-2.54.91-5,.84-7.6,0-1.2-.3-1.55-1.56-1.32a39.38,39.38,0,0,1-8.34.28,8.25,8.25,0,0,1-5.42-2.44,1.84,1.84,0,0,1-.46-2.62c.83-1,1.16.4,1.74.65,3.29,1.4,6.71,1.1,10,.35,5.3-1.22,5-1.44,5.72-6.87,1.57-11,4.64-21.67,10.86-31.13A15.33,15.33,0,0,1,95.51,52a6.14,6.14,0,0,1,9.94,3,15.1,15.1,0,0,1,.84,6c-.89,9.34-2.25,18.5-9.2,25.69a37.16,37.16,0,0,1-11,7.64,2.78,2.78,0,0,0-1.75,2.3A36,36,0,0,0,83.61,104.37Zm18.53-43.25c0-.88,0-1.86,0-2.83a9.73,9.73,0,0,0-.22-1.79c-.55-2.4-2.48-3.08-4.35-1.53a13.4,13.4,0,0,0-2.82,3.49A70.41,70.41,0,0,0,87,78.75c-.7,3-1.23,6-1.74,9-.21,1.25.15,2,1.6,1.12a28.39,28.39,0,0,0,9.58-8.72C100.19,74.41,101.54,67.94,102.14,61.12Z"/><path d="M119.08,85.29a3.09,3.09,0,0,1-2.93,3.08c-1.56-.06-3.16-2-3.1-3.83a3.57,3.57,0,0,1,3.33-3C117.82,81.53,119.14,83.39,119.08,85.29Z"/></g></g></g></svg>